<?xml version="1.0" encoding="iso-8859-1"?>
<!-- Generator: Adobe Illustrator 18.0.0, SVG Export Plug-In . SVG Version: 6.00 Build 0)  -->
<!DOCTYPE svg PUBLIC "-//W3C//DTD SVG 1.1//EN" "http://www.w3.org/Graphics/SVG/1.1/DTD/svg11.dtd">
<svg version="1.1" id="Capa_1" xmlns="http://www.w3.org/2000/svg" xmlns:xlink="http://www.w3.org/1999/xlink" x="0px" y="0px"
	 viewBox="0 0 317.324 317.324" style="enable-background:new 0 0 317.324 317.324;" xml:space="preserve">
<path d="M292.495,259.708L212.54,138.973V67.885h5.872c6.903,0,12.5-5.597,12.5-12.5V12.5c0-6.903-5.597-12.5-12.5-12.5h-119.5
	c-6.903,0-12.5,5.597-12.5,12.5v42.885c0,6.903,5.597,12.5,12.5,12.5h5.872v71.088L24.829,259.708
	c-7.56,11.416-8.231,26.001-1.752,38.061c6.479,12.062,19.009,19.555,32.701,19.555h205.767c13.692,0,26.223-7.493,32.701-19.554
	C300.727,285.709,300.056,271.124,292.495,259.708z M111.412,25h94.5v17.885c-8.475,0-84.209,0-94.5,0V25z M187.54,67.885v74.851
	c0,2.455,0.723,4.855,2.078,6.901l12.712,19.196h-57.336l-58.543,88.401c-3.811,5.754-11.564,7.333-17.323,3.52
	c-5.756-3.812-7.332-11.567-3.521-17.323l62.099-93.795c1.356-2.046,2.078-4.446,2.078-6.901V67.885H187.54z"/>
<g>
</g>
<g>
</g>
<g>
</g>
<g>
</g>
<g>
</g>
<g>
</g>
<g>
</g>
<g>
</g>
<g>
</g>
<g>
</g>
<g>
</g>
<g>
</g>
<g>
</g>
<g>
</g>
<g>
</g>
</svg>
