<?xml version="1.0" encoding="utf-8"?>
<!-- Generator: Adobe Illustrator 23.0.1, SVG Export Plug-In . SVG Version: 6.00 Build 0)  -->
<svg version="1.1" id="Capa_1" xmlns="http://www.w3.org/2000/svg" xmlns:xlink="http://www.w3.org/1999/xlink" x="0px" y="0px"
	 viewBox="0 0 512 512" style="enable-background:new 0 0 512 512;" xml:space="preserve">
<path d="M413.3,174.5l21.6-66.2c4.7-14.5-10.5-27.4-24-20.4l-65.2,33.9C319.4,109,290,101.7,259,101.3c-2.2-17.2-6.2-62.8,10-82
	c4.8-5.7,10.9-8.5,18.6-8.5c6.7,0,12.1,2.2,16.5,6.8c3,3.2,5.3,7.1,7.1,11.4l-1.1,10.4c-0.2,2.1-2.3,3.6-4.4,3.2l-10.8-2.3
	c-3.4-0.7-5.7,3.2-3.6,5.9l7,8.6c1.4,1.7,1,4.2-0.8,5.3l-9.3,6.1c-2.9,1.9-1.8,6.3,1.6,6.7l11,1.1c2.1,0.2,3.6,2.3,3.2,4.4
	l-2.3,10.8c-0.7,3.4,3.2,5.7,5.9,3.6l8.6-7c1.7-1.4,4.2-1,5.3,0.8l6.1,9.3c1.9,2.9,6.3,1.8,6.7-1.6l1.1-11c0.2-2.1,2.3-3.6,4.4-3.2
	l10.8,2.3c3.4,0.7,5.7-3.2,3.6-5.9l-7-8.6c-1.4-1.7-1-4.2,0.8-5.3l9.3-6.1c2.9-1.9,1.8-6.3-1.6-6.7l-11-1.1
	c-2.1-0.2-3.6-2.3-3.2-4.4l2.3-10.8c0.7-3.4-3.2-5.7-5.9-3.6l-8.6,7c-1.7,1.4-4.2,1-5.3-0.8l-3.8-5.9c-2.2-6.7-5.5-13.1-10.3-18.1
	c-5.9-6.2-13.5-9.3-22.3-9.3c-10.1,0-18.4,3.8-24.7,11.3c-18.1,21.5-14.3,68.2-11.9,87.2c-27.5,0.7-53.6,6.8-77.4,17.3l-59-30.7
	c-13.5-7-28.7,5.9-24,20.4l18.2,55.7C73,200.8,51,251,51,306.4c0,113.3,91.8,205.1,205.1,205.1s205.1-91.8,205.1-205.1
	C461.3,256.1,443.2,210.1,413.3,174.5z M256.9,122.7c25.4,0,46,20.6,46,46c0,25.4-20.6,46-46,46c-25.4,0-46-20.6-46-46
	C210.8,143.3,231.4,122.7,256.9,122.7z M262.9,468c-126.8-0.1-105.1-217.9-105.1-217.9s7.1,0.2,19.1,0.4l23.6,66.6
	c1.7,4.9,8.6,4.9,10.3,0l23.3-65.9c7.1,0,14.5,0.1,22.1,0.1c7,0,13.8,0,20.4,0l23.3,65.9c1.7,4.9,8.6,4.9,10.3,0l23.5-66.5
	c13-0.2,20.7-0.4,20.7-0.4S382.5,468,262.9,468z"/>
<path d="M272.8,163.2c-5.8,0-10.5-4.7-10.5-10.5c0-3.5,1.8-6.6,4.4-8.5c-3.1-1.2-6.4-1.9-9.9-1.9c-14.6,0-26.4,11.8-26.4,26.4
	c0,14.6,11.8,26.4,26.4,26.4c14.6,0,26.4-11.8,26.4-26.4c0-3.5-0.7-6.8-1.9-9.9C279.4,161.5,276.3,163.2,272.8,163.2z"/>
</svg>
