<?xml version="1.0" encoding="utf-8"?>
<!-- Generator: Adobe Illustrator 23.0.1, SVG Export Plug-In . SVG Version: 6.00 Build 0)  -->
<svg version="1.1" id="Layer_1" xmlns="http://www.w3.org/2000/svg" xmlns:xlink="http://www.w3.org/1999/xlink" x="0px" y="0px"
	 viewBox="0 0 1080 1080" style="enable-background:new 0 0 1080 1080;" xml:space="preserve">
<style type="text/css">
	.st0{fill:#2ED67A;}
	.st1{fill:#147F3F;}
	.st2{fill:#0E4C27;}
	.st3{fill:#2AC66D;}
	.st4{fill:#23B762;}
	.st5{fill:#1F9950;}
</style>
<path class="st0" d="M401.9,438.5c-22.7-8.8-17.5,10.9-56.3-79.2s-49.7-96.9-72-91.3c-22.5,5.6-39.4,123.9-7.8,137.4
	s29-30.6,49.2-8.3c20.2,22.3,50.9,76.4,59.8,80.8C419,499.5,413,442.8,401.9,438.5z"/>
<ellipse transform="matrix(7.571062e-02 -0.9971 0.9971 7.571062e-02 -77.7969 585.7391)" class="st1" cx="277.1" cy="334.8" rx="61.8" ry="21"/>
<path class="st2" d="M291.1,286.2c-11.6-0.9-23,26-25.6,60c-1.5,20,0.4,38,4.5,49.6c0.8,0.3,1.6,0.6,2.4,0.6c11.6,0.9,23-26,25.6-60
	c1.5-20-0.4-38-4.5-49.6C292.7,286.5,291.9,286.3,291.1,286.2z"/>
<path class="st3" d="M859,257.4c-21.5-5.4-32,1.1-69.5,88.1C765.6,401,750,416.8,741.9,421c7.8,11.5,14.5,23.8,20.1,36.5
	c5.8-13.4,38.8-55.5,56.9-75.5c19.5-21.5,17,21,47.5,8S880.8,262.8,859,257.4z"/>
<path class="st4" d="M368.5,443.8c0.4,2.7-3.5,2-6.8,3.5c-2.1,1-6.2,0-6.6-2.7c-0.4-2.7,3.6-5.5,5.9-5.9
	C363.3,438.4,368.1,441.2,368.5,443.8z"/>
<path class="st4" d="M378.8,448c3.5,2.5,2.3,10.3,0.2,13.3s-6.8,8.2-10.3,5.7c-3.5-2.5,1.2-4.7-1.4-13.8
	C366.2,449.6,375.3,445.5,378.8,448z"/>
<path class="st4" d="M376.2,469c-3.9,2.3-6.4,2-8.1,2.2c2.8,3.5,5.1,5.9,6.7,6.7c1.4,0.7,2.7,1.3,4,1.8c1.7-0.5,3.1-1.4,3.6-2.8
	C383.7,473.7,378.8,467.5,376.2,469z"/>
<path class="st4" d="M356.9,451.9c-0.7,0.3-1.3,0.6-1.8,1c2.3,3.3,4.4,6.5,6.5,9.4c2.8-1.4,4.2-4.5,3.2-7.2
	C363.6,452.1,360.1,450.7,356.9,451.9z"/>
<path class="st4" d="M389.8,451.7C389.8,451.7,389.8,451.7,389.8,451.7c-1.5-0.9-4.1,0-3.9,1.7c0.6,6.7-2.2,8.1-3.2,11.9
	c-0.4,1.6,0.6,3.2,2.3,3.4c3.6,0.4,7.2-1.2,9-4.3C396.4,460,394.6,454.4,389.8,451.7z"/>
<path class="st4" d="M394.3,443.8c8.9-4.4,13.4,8.9,13.5,12.9s-2.2,7.3-5.1,7.3c-2.9,0.1-6-0.8-5.1-4.7
	C399.4,451.4,388.5,446.7,394.3,443.8z"/>
<path class="st4" d="M406.3,475.2c0.6-1,0.6-2.2,0-3.2c-2.9-5.3-8.2-13.2-15.1-0.4c-1.2,2.3-3.5,3.3-5.8,4.1c-3,1.1-2.8,5.4,0.3,6.2
	C396.2,484.5,402.7,481.1,406.3,475.2z"/>
<path class="st4" d="M329.1,346.7c2.4,0,5.6-2.1,8.6-5.4c-3.4-7.7-6.6-14.6-9.6-20.9C326.7,332.7,324.7,346.7,329.1,346.7z"/>
<path class="st5" d="M767.7,391.7c8.3,0,15-5.1,15-11.3c0-3.4-2-6.5-5.3-8.6c-3.8,7.7-7.4,14.3-10.7,19.9
	C767,391.6,767.3,391.7,767.7,391.7z"/>
<ellipse transform="matrix(0.7858 -0.6185 0.6185 0.7858 -108.4144 566.994)" class="st5" cx="764.4" cy="440" rx="2.3" ry="0.9"/>
<ellipse transform="matrix(0.7002 -0.7139 0.7139 0.7002 -86.3039 679.9965)" class="st5" cx="766.5" cy="442.8" rx="4.9" ry="1.5"/>
<path class="st5" d="M761.7,400.2c3.8,1.5,7.5,1.1,8.4-1c0.8-2,0-5.7-5.2-4.6c-1.2,2-2.4,3.8-3.5,5.5
	C761.5,400.1,761.6,400.1,761.7,400.2z"/>
</svg>
