<?xml version="1.0" encoding="utf-8"?>
<!-- Generator: Adobe Illustrator 23.0.1, SVG Export Plug-In . SVG Version: 6.00 Build 0)  -->
<svg version="1.1" id="Layer_1" xmlns="http://www.w3.org/2000/svg" xmlns:xlink="http://www.w3.org/1999/xlink" x="0px" y="0px"
	 viewBox="0 0 1080 1080" style="enable-background:new 0 0 1080 1080;" xml:space="preserve">
<style type="text/css">
	.st0{fill:#2ED67A;}
	.st1{fill:#1EA859;}
</style>
<path class="st0" d="M401.86,438.48c-22.66-8.79-17.46,10.88-56.31-79.25s-49.72-96.86-72-91.28
	c-22.53,5.65-39.37,123.91-7.77,137.38s29.01-30.56,49.21-8.29c20.2,22.27,50.86,76.39,59.84,80.8
	C419,499.55,412.99,442.79,401.86,438.48z"/>
<ellipse transform="matrix(0.0757 -0.9971 0.9971 0.0757 -77.7969 585.7391)" class="st1" cx="277.05" cy="334.83" rx="61.8" ry="21"/>
<path class="st0" d="M859,257.39c-21.5-5.39-32,1.11-69.5,88.11c-23.94,55.53-39.46,71.34-47.56,75.51
	c7.79,11.54,14.55,23.75,20.13,36.52c5.83-13.36,38.76-55.5,56.92-75.53c19.5-21.5,17,21,47.5,8S880.75,262.84,859,257.39z"/>
</svg>
