<?xml version="1.0" encoding="utf-8"?>
<!-- Generator: Adobe Illustrator 23.0.1, SVG Export Plug-In . SVG Version: 6.00 Build 0)  -->
<svg version="1.1" id="Layer_1" xmlns="http://www.w3.org/2000/svg" xmlns:xlink="http://www.w3.org/1999/xlink" x="0px" y="0px"
	 viewBox="0 0 1080 1080" style="enable-background:new 0 0 1080 1080;" xml:space="preserve">
<style type="text/css">
	.st0{fill:#138E47;}
	.st1{fill:#32B76B;}
	.st2{fill:#2ED67A;}
	.st3{fill:#0F7A3A;}
</style>
<path class="st0" d="M446.7,455.3c0,0-8-53.3-102.3-40.7C250,427.3,232,399.2,232,399.2s1.3,53.8,42,53.8s52-8.3,63.7,6.3
	c11.7,14.7,38.8,71.2,82.6,46.2C453,486.8,453,473,446.7,455.3z"/>
<path class="st1" d="M408.2,445.9c-4.4,6.3-6.2,13.5-4.5,20.4c2.8,11.6,14.4,19.4,28.9,20.7C432.5,467.7,422.6,454.5,408.2,445.9z"
	/>
<path class="st2" d="M344.3,414.7c-74.4,10-101.3-5.4-109.4-12.4c9.7,9.8,42.3,38.9,79,31.8c38.5-7.4,129-2.6,117.5,64.2
	c24.5-14,19-36.1,16.1-45.7C447.7,452.7,438.7,402,344.3,414.7z"/>
<path class="st3" d="M446.7,455.3c0,0-8-53.3-102.3-40.7C250,427.3,232,399.2,232,399.2s1.3,53.8,42,53.8s52-8.3,63.7,6.3
	c11.7,14.7,38.8,71.2,82.6,46.2C453,486.8,453,473,446.7,455.3z"/>
<path class="st1" d="M408.2,445.9c-4.4,6.3-6.2,13.5-4.5,20.4c2.8,11.6,14.4,19.4,28.9,20.7C432.5,467.7,422.6,454.5,408.2,445.9z"
	/>
<path class="st2" d="M344.3,414.7c-74.4,10-101.3-5.4-109.4-12.4c9.7,9.8,42.3,38.9,79,31.8c38.5-7.4,129-2.6,117.5,64.2
	c24.5-14,19-36.1,16.1-45.7C447.7,452.7,438.7,402,344.3,414.7z"/>
<path class="st3" d="M873.5,346c0,0-27.5,51-85,51c-26.2,0-41.1,9.3-49.7,19.5c17.1,24.1,29.6,51.4,36.3,80.5
	c19.5-8.3,22-29.3,24.4-46.6c3-21.7,5-13.8,42-31.9S873.5,346,873.5,346z"/>
<path class="st2" d="M873.5,346c0,0-27.5,51-85,51c-26.2,0-41.1,9.3-49.7,19.5c6.2,8.7,11.8,17.8,16.7,27.3c0,0,0,0,0,0
	c15-32.7,37.5-28.3,77.5-36.3c34.1-6.8,39.7-48.6,40.6-60.7C873.5,346.3,873.5,346,873.5,346z"/>
<path class="st1" d="M767.6,471.3c7.7-3.8,12.9-11.3,12.9-19.9c0-9.9-6.9-18.3-16.6-21.4c-3,3.7-5.8,8.2-8.4,13.7c0,0,0,0,0,0
	C760.1,452.7,764.1,461.8,767.6,471.3z"/>
</svg>
