<?xml version="1.0" encoding="utf-8"?>
<!-- Generator: Adobe Illustrator 23.0.1, SVG Export Plug-In . SVG Version: 6.00 Build 0)  -->
<svg version="1.1" id="Layer_1" xmlns="http://www.w3.org/2000/svg" xmlns:xlink="http://www.w3.org/1999/xlink" x="0px" y="0px"
	 viewBox="0 0 1080 1080" style="enable-background:new 0 0 1080 1080;" xml:space="preserve">
<style type="text/css">
	.st0{fill:#5E17A6;}
	.st1{fill:#320B60;}
</style>
<path class="st0" d="M381.5,465.5c0,0-55,12.5-33-36L327.9,414c0,0-99.9-4.5-114.9,65c0,0,51-25.5,69.5-6.5c0,0-27.5,20.5-17,47
	c0,0,23.5-34.5,45.5-29c0,0-7.5,25,6.5,34.5c0,0,16.5-53,59.5-37.5C377,487.5,390,479,381.5,465.5z"/>
<path class="st0" d="M853.1,473.8c-11.6-57.1-67.4-57.2-67.4-57.2L778,429c14.8,37-4.7,39.5-11.5,39.3c2.2,5.9,4.2,12,6,18.1
	c14.8-14.9,33.5,30.7,33.5,30.7c3.7-7.9,0.5-28.2,0.5-28.2c3.5-4.9,24.3,21.1,24.3,21.1c4.1-13.5-13.5-37.8-13.5-37.8
	C822.3,458,853.1,473.8,853.1,473.8z"/>
<path class="st1" d="M381.5,465.5c0,0-53,12-34.1-33.4l0,0c0.4-0.9,0.7-1.7,1.1-2.6l-8.3-6.3l0,0l-12.3-9.2c0,0-99.1-4.5-114.7,64.2
	c8.5-17.7,21.5-57.5,108.9-51.9c7.7,0.5,13.1,7.8,12.1,15.4c-0.9,6.8-0.2,13.9,4.5,19.3c8.7,10.1,32.4,13.1,45.7,14
	C384.5,472.2,383.7,469,381.5,465.5z"/>
<path class="st1" d="M265,519.7c-4.1-9.2-3.6-20.2,0.6-29.5c2.1-4.7,5-8.9,8.4-12.7c3.4-3.8,7.2-7.1,11.4-10.1
	c8.3-6,18.1-9.9,28.2-11.9c5.1-0.9,10.2-1.4,15.4-1.4c2.6,0,5.2,0.1,7.8,0.4c1.3,0.1,2.6,0.3,3.9,0.5c0.7,0.1,1.3,0.2,2,0.3
	c0.7,0.1,1.3,0.2,2.1,0.4l-2.4,8.4c-0.4-0.1-1-0.3-1.5-0.4c-0.5-0.1-1.1-0.3-1.7-0.4c-1.1-0.2-2.3-0.5-3.4-0.6
	c-2.3-0.4-4.6-0.6-7-0.8c-4.7-0.3-9.4-0.2-14.1,0.3c-9.3,1.1-18.5,4.1-26.6,9.1c-8,5-15.4,11.6-19.9,20.1c-2.2,4.2-3.7,8.8-4.1,13.6
	c-0.2,2.4-0.2,4.8,0.1,7.2c0.3,2.4,0.8,4.8,1.7,7L265,519.7z"/>
<path class="st1" d="M317.2,525.4c-3.3-2.9-5.9-6.4-7.8-10.4c-1.9-3.9-3-8.4-2.9-12.8c0-2.2,0.4-4.5,0.9-6.6
	c0.6-2.2,1.4-4.2,2.4-6.3c2.2-4.2,5.7-7.3,9.5-9.7c3.8-2.4,7.9-4.1,12-5.5c4.2-1.4,8.4-2.5,12.6-3.3c4.3-0.8,8.5-1.5,12.9-2
	c4.3-0.5,8.6-0.8,13-0.9l-0.1,6.1c-4.1-0.1-8.3,0-12.5,0.3c-4.2,0.3-8.3,0.7-12.5,1.3c-4.1,0.6-8.2,1.5-12.2,2.6
	c-4,1.1-7.8,2.6-11.4,4.6c-3.5,2-6.6,4.6-8.6,8c-1,1.7-1.8,3.6-2.5,5.5c-0.6,1.9-1,3.9-1.2,5.9c-0.7,8.1,3,16.4,8.9,22.3
	L317.2,525.4z"/>
<path class="st1" d="M785.7,416.6L778,429c14.8,37-4.7,39.5-11.5,39.3c0.9,2.4,1.8,4.9,2.6,7.4c9.3-1.7,13.6-7.8,21.3-16
	c9.7-10.3-11.3-27.9-2.7-32.7c31.8-17.6,65.5,46.8,65.5,46.8C841.6,416.7,785.7,416.6,785.7,416.6z"/>
<path class="st1" d="M830.6,508.6c0.2-3.1-0.3-6.3-0.9-9.3c-0.7-3.1-1.7-6.1-2.9-9c-2.5-5.8-5.8-11.2-9.8-16.1
	c-3.9-4.9-8.5-9.2-13.8-12.3c-2.6-1.5-5.4-2.7-8.2-3.5c-1.4-0.4-2.8-0.6-4.2-0.8c-0.7-0.1-1.4-0.1-2.1-0.1c-0.3,0-0.7,0-1,0
	c-0.2,0-0.3,0.1-0.5,0c-0.2-0.1-0.4-0.4-0.6-1.2l-0.5-2.5c0.1-0.9,0.3-1.2,0.6-1.4c0.2-0.1,0.5-0.1,0.7-0.1c0.5,0,0.9,0,1.4,0
	c0.9,0,1.8,0.1,2.7,0.1c1.8,0.2,3.5,0.6,5.1,1.1c3.3,1.1,6.4,2.7,9.1,4.7c5.5,3.9,9.9,9,13.7,14.3c3.8,5.3,7,11,9.3,17.1
	c1.1,3.1,2,6.2,2.5,9.4c0.5,3.2,0.8,6.4,0.5,9.8L830.6,508.6z"/>
<path class="st1" d="M806.1,515.1c0.3-4.9,0.2-9.9-0.3-14.8c-0.3-2.4-0.7-4.9-1.2-7.2c-0.5-2.4-1.2-4.7-2.1-6.9
	c-0.9-2.2-2-4.4-3.3-6.3c-1.3-2-2.8-3.7-4.6-5.3c-1.7-1.6-3.6-3.1-5.6-4.4c-1-0.6-2-1.2-3.1-1.7c-1-0.6-1.9-1.4-2.8-2.9
	c1.6-1,3-0.8,4.3-0.4c1.2,0.5,2.4,1.2,3.5,1.9c2.3,1.4,4.3,3,6.3,4.8c1.9,1.8,3.7,3.9,5.1,6.1c1.4,2.2,2.6,4.6,3.4,7.1
	c0.9,2.5,1.5,5,2,7.5c0.4,2.5,0.7,5.1,0.8,7.7c0.1,5.1-0.2,10.2-1.3,15.2L806.1,515.1z"/>
</svg>
