<?xml version="1.0" encoding="utf-8"?>
<!-- Generator: Adobe Illustrator 23.0.1, SVG Export Plug-In . SVG Version: 6.00 Build 0)  -->
<svg version="1.1" id="Layer_1" xmlns="http://www.w3.org/2000/svg" xmlns:xlink="http://www.w3.org/1999/xlink" x="0px" y="0px"
	 viewBox="0 0 1080 1080" style="enable-background:new 0 0 1080 1080;" xml:space="preserve">
<style type="text/css">
	.st0{fill:#E6E7E8;}
	.st1{fill:#F476F4;}
	.st2{fill:#5E17A6;}
	.st3{fill:#230B3F;}
	.st4{fill:#F2F3F4;}
</style>
<path class="st0" d="M714,526.7c-8,3-19.1,6.4-32.9,8.8c-21.4,3.6-54.6,5.7-71.2,6.5c-0.5,4-0.5,8.1,0,12.2
	c3.8,27.3,30.9,46,60.6,42s50.8-29.5,47-56.8C717,534.9,715.7,530.7,714,526.7z"/>
<polygon class="st1" points="630.2,561.4 621.6,557.1 622,557.1 611.6,561.4 610.7,558.4 621.7,556.2 621.9,556.1 622.1,556.2 
	630.6,560.5 "/>
<path class="st1" d="M666.7,544.6c-0.7,0.7-1.2,1.4-1.7,2.2c-0.5,0.8-0.9,1.6-1.4,2.4c-0.5,0.8-1,1.6-1.6,2.3c-0.3,0.4-0.6,0.7-1,1
	c-0.4,0.3-0.9,0.6-1.4,0.6c-1,0.1-1.9,0-2.8-0.1c-0.9-0.1-1.8-0.1-2.7-0.3c-1.8-0.2-3.6-0.6-5.4-1c1.8,0.4,3.6,0.7,5.4,1
	c0.9,0.1,1.8,0.2,2.7,0.3c0.9,0.1,1.9,0,2.7-0.3c0.4-0.2,0.7-0.4,0.9-0.8c0.3-0.3,0.5-0.7,0.8-1.1l1.5-2.2c0.5-0.8,1-1.5,1.4-2.3
	c0.4-0.8,0.8-1.6,0.9-2.6L666.7,544.6z"/>
<polygon class="st1" points="660.6,571.9 660.7,584.3 660.7,584.9 660.2,585.1 652.2,588 652.5,587.7 649.1,595.9 648.2,595.5 
	651.5,587.4 651.6,587.2 651.8,587.1 659.4,583.4 658.9,584.2 "/>
<polygon class="st1" points="710.8,541 714.1,544.7 713.9,544.6 718.2,546.9 717.8,547.8 713.4,545.4 713.3,545.4 713.3,545.3 "/>
<polygon class="st1" points="700.9,538.4 707.8,532.3 708,532.2 708.2,532.2 716.2,531.6 716.2,533.8 708.2,533.2 708.5,533 
	701.6,539.1 "/>
<path class="st1" d="M701.7,558.9c0.1,1.4,0,2.7-0.2,4.1c-0.1,1.4-0.4,2.7-0.7,4l-1.7,8l0,0l5,0.3l0.4,0l0,0.4l0.3,3.2l-1,0.1
	l-0.3-3.2l0.4,0.4l-4.9-1.3l0,0l0.4-8.2c0-1.4,0.1-2.7,0.3-4.1c0.2-1.3,0.4-2.7,0.9-4L701.7,558.9z"/>
<polygon class="st1" points="711.4,569.4 708.3,565.6 708.8,565.8 700.4,569.3 699.7,567.1 708.5,564.9 708.9,564.8 709.1,565 
	712.1,568.8 "/>
<path class="st2" d="M681.1,535.5c-6.1,1-13.2,1.9-20.5,2.7c-0.1,0.6-0.1,1.3-0.1,1.9c0,7.8,6.3,14.1,14.1,14.1s14.1-6.3,14.1-14.1
	c0-2.1-0.5-4-1.3-5.8C685.4,534.7,683.3,535.1,681.1,535.5z"/>
<path class="st3" d="M684.2,534.9c-1.5,0.3-5.3,0.9-6.9,1.2c-5.4,0.9-5.6,0.9-12.1,1.6c0.2,6.2,3.1,11.5,9.3,11.5
	c6.4,0,10.4-2.8,10.4-9.2C685,539,684.5,535.9,684.2,534.9z"/>
<circle class="st4" cx="685.8" cy="538.7" r="2.8"/>
</svg>
