<?xml version="1.0" encoding="utf-8"?>
<!-- Generator: Adobe Illustrator 23.0.1, SVG Export Plug-In . SVG Version: 6.00 Build 0)  -->
<svg version="1.1" id="Layer_1" xmlns="http://www.w3.org/2000/svg" xmlns:xlink="http://www.w3.org/1999/xlink" x="0px" y="0px"
	 viewBox="0 0 1080 1080" style="enable-background:new 0 0 1080 1080;" xml:space="preserve">
<style type="text/css">
	.st0{fill:#E6E7E8;}
	.st1{fill:#D964F2;}
	.st2{fill:#D964F2;stroke:#3A0D6D;stroke-miterlimit:10;}
	.st3{fill:#5E17A6;}
</style>
<circle class="st0" cx="567.2" cy="530.4" r="35.6"/>
<circle class="st0" cx="730.9" cy="509.6" r="30.4"/>
<polygon class="st1" points="571,495.4 563.9,500.1 564.1,499.2 567.6,506.2 566.7,506.6 562.9,499.9 562.6,499.3 563.2,499 
	570.5,494.6 "/>
<polygon class="st1" points="549.1,561 552.2,555.7 552.3,555.7 552.4,555.6 558.1,551.3 557.5,552 561.3,543.7 559.8,552.7 
	559.7,553.1 559.3,553.3 552.9,556.4 553.1,556.3 550,561.5 "/>
<polygon class="st1" points="576.9,534.8 583,540.3 581.8,540.1 588.7,538.1 588.7,538.1 592.9,540.6 592.3,541.4 588.7,538.1 
	588.7,538.1 582.7,541.9 582.1,542.3 581.5,541.7 576.1,535.5 "/>
<polygon class="st1" points="587.3,543.7 585.3,539.6 586.2,539.2 "/>
<rect x="564.9" y="494.1" transform="matrix(0.5531 -0.8331 0.8331 0.5531 -160.6651 692.7843)" class="st1" width="1" height="4.1"/>
<polygon class="st1" points="554.2,555.5 555.9,563.8 554.9,564.1 551.2,556.5 "/>
<polygon class="st1" points="582.3,546.3 584.6,552.5 584.6,552.5 590.2,550.5 590.6,550.4 590.8,550.8 593.1,555 592.2,555.5 
	589.9,551.2 590.5,551.5 584.6,552.5 584.6,552.5 "/>
<path class="st1" d="M703.5,523.3l6.4-9.3l0.1-0.1l0.3-0.1c0.6-0.2,1.3-0.2,1.9-0.1l1.9,0.2c0.6,0,1.3,0.1,1.9,0.2
	c0.6,0.1,1.3,0.2,1.9,0.3l0,0l1.7-6.3l-1.7,6.3l0,0c-0.6,0.1-1.3,0.2-1.9,0.3c-0.6,0.1-1.3,0.2-1.9,0.2l-1.9,0.2
	c-0.6,0.1-1.3,0.1-1.9-0.1l0.4-0.2l-6.4,9.3L703.5,523.3z"/>
<polygon class="st1" points="739,500.3 747.1,505.4 747.7,505.8 747.6,506.4 746.3,514.3 745.1,506.4 745.6,507.4 738.4,501.1 "/>
<rect x="749" y="507.1" transform="matrix(0.2109 -0.9775 0.9775 0.2109 92.5803 1135.3206)" class="st1" width="1" height="6.5"/>
<polygon class="st1" points="749.5,486.2 742.5,486.4 743.2,485.7 742.5,491 741.5,491 741.8,485.6 741.8,484.9 742.5,484.9 
	749.5,485.2 "/>
<path class="st2" d="M742.5,481.6"/>
<line class="st1" x1="745.8" y1="485.7" x2="742.5" y2="481.6"/>
<path class="st1" d="M700.8,514l3.4,3.3l-0.6-0.1c0-0.6,0.2-0.9,0.5-1c0.1,0,0.1-0.1,0.2,0c0.1,0.1,0.3,0.2,0.4,0.3
	c0.3,0.2,0.4,0.1,0.5,0c0.6-0.2,1.1-0.5,1.6-0.8c0.5-0.3,1.1-0.6,1.6-0.9c0.5-0.3,1-0.7,1.5-1.1l0.7,1.4c-0.6,0.1-1.2,0.3-1.7,0.6
	c-0.6,0.2-1.1,0.5-1.6,0.8c-0.5,0.3-1.1,0.6-1.6,0.9c-0.1,0.1-0.3,0.1-0.3,0.4c0,0.2,0,0.3,0,0.5c0,0.1-0.1,0.2-0.2,0.2
	c-0.3,0.1-0.6,0.1-1.1-0.2l-0.6-0.1l-3.4-3.4L700.8,514z"/>
<path class="st3" d="M569.3,523.6c-0.3,0-0.6,0-0.9,0c0.5,0.8,0.9,1.8,0.9,2.8c0,2.8-2.3,5.1-5.1,5.1c-1.1,0-2-0.3-2.8-0.9
	c0,0.3,0,0.6,0,0.9c0,4.4,3.6,8,8,8s8-3.6,8-8C577.3,527.2,573.7,523.6,569.3,523.6z"/>
<path class="st3" d="M735.1,492.7c-0.3,0-0.5,0-0.7,0c0.5,0.7,0.7,1.5,0.7,2.4c0,2.4-2,4.4-4.4,4.4c-0.9,0-1.7-0.3-2.4-0.7
	c0,0.2,0,0.5,0,0.7c0,3.8,3.1,6.9,6.9,6.9s6.9-3.1,6.9-6.9C742,495.8,738.9,492.7,735.1,492.7z"/>
</svg>
