<?xml version="1.0" encoding="utf-8"?>
<!-- Generator: Adobe Illustrator 23.0.1, SVG Export Plug-In . SVG Version: 6.00 Build 0)  -->
<svg version="1.1" id="Layer_1" xmlns="http://www.w3.org/2000/svg" xmlns:xlink="http://www.w3.org/1999/xlink" x="0px" y="0px"
	 viewBox="0 0 1080 1080" style="enable-background:new 0 0 1080 1080;" xml:space="preserve">
<style type="text/css">
	.st0{fill:#DEDFE0;}
	.st1{fill:#EAEAEA;}
	.st2{fill:#EFEFEF;}
	.st3{fill:#FFFFFF;}
	.st4{fill:#5E17A6;}
	.st5{fill:#3A0D6D;}
</style>
<ellipse class="st0" cx="657.8" cy="538" rx="57" ry="59"/>
<ellipse transform="matrix(0.2441 -0.9697 0.9697 0.2441 -18.751 1045.6265)" class="st1" cx="661.4" cy="534.8" rx="50.4" ry="48.7"/>
<ellipse transform="matrix(0.2441 -0.9697 0.9697 0.2441 -5.3258 1044.1832)" class="st2" cx="667.1" cy="525.5" rx="36.6" ry="35.4"/>
<ellipse transform="matrix(0.2441 -0.9697 0.9697 0.2441 19.9332 1038.8879)" class="st3" cx="676.4" cy="506.7" rx="6.5" ry="6.3"/>
<path class="st4" d="M682.7,507.6c-0.4,2.9-3,5.1-6.2,5.1c-3.5,0-6.3-2.6-6.3-5.9c0-1.3,0.4-2.4,1.2-3.4c-5.6,1.1-9.9,6.2-9.9,12.3
	c0,6.9,5.4,12.5,12.1,12.5s12.1-5.6,12.1-12.5C685.6,512.6,684.5,509.8,682.7,507.6z"/>
<path class="st5" d="M676.4,512.7c-3.2,0-5.8-2.2-6.2-5.1c-2.1,1-3.7,3-4.3,5.4c-1.1,4.4,1.4,8.8,5.7,9.8s8.5-1.6,9.6-6
	c0.5-2,0.2-4-0.6-5.6C679.5,512.1,678,512.7,676.4,512.7z"/>
</svg>
