<?xml version="1.0" encoding="utf-8"?>
<!-- Generator: Adobe Illustrator 23.0.1, SVG Export Plug-In . SVG Version: 6.00 Build 0)  -->
<svg version="1.1" id="Layer_1" xmlns="http://www.w3.org/2000/svg" xmlns:xlink="http://www.w3.org/1999/xlink" x="0px" y="0px"
	 viewBox="0 0 1080 1080" style="enable-background:new 0 0 1080 1080;" xml:space="preserve">
<style type="text/css">
	.st0{fill:#E6E7E8;}
	.st1{fill:#1D1D24;}
</style>
<circle class="st0" cx="567.21" cy="530.4" r="35.56"/>
<circle class="st0" cx="730.87" cy="509.63" r="30.37"/>
<path class="st1" d="M569.28,523.6c-0.29,0-0.58,0.02-0.87,0.05c0.55,0.81,0.87,1.79,0.87,2.85c0,2.83-2.3,5.13-5.13,5.13
	c-1.05,0-2.03-0.32-2.85-0.87c-0.03,0.28-0.05,0.57-0.05,0.87c0,4.43,3.59,8.02,8.02,8.02s8.02-3.59,8.02-8.02
	C577.3,527.2,573.71,523.6,569.28,523.6z"/>
<path class="st1" d="M735.14,492.69c-0.25,0-0.5,0.02-0.74,0.04c0.47,0.7,0.74,1.53,0.74,2.43c0,2.42-1.96,4.38-4.38,4.38
	c-0.9,0-1.74-0.27-2.43-0.74c-0.03,0.24-0.04,0.49-0.04,0.74c0,3.79,3.07,6.86,6.86,6.86s6.86-3.07,6.86-6.86
	C742,495.76,738.93,492.69,735.14,492.69z"/>
</svg>
