<?xml version="1.0" encoding="utf-8"?>
<!-- Generator: Adobe Illustrator 23.0.1, SVG Export Plug-In . SVG Version: 6.00 Build 0)  -->
<svg version="1.1" id="Layer_1" xmlns="http://www.w3.org/2000/svg" xmlns:xlink="http://www.w3.org/1999/xlink" x="0px" y="0px"
	 viewBox="0 0 1080 1080" style="enable-background:new 0 0 1080 1080;" xml:space="preserve">
<style type="text/css">
	.st0{fill:#7C57AD;}
	.st1{fill:#C590FC;}
	.st2{fill:#D8CAF9;}
	.st3{fill:#684A99;}
	.st4{fill:#CDB3FF;}
</style>
<path class="st0" d="M660.4,294.5c-3.8-2.4-7.5-0.8-15.8,0.4c-2.1,3.8-17.9,34.4-15.6,73.2c1.8,1.7,0.3,18.4,2.4,18.4
	c9.8,0,13.4-4,13.4-4C634.4,332.5,660.4,294.5,660.4,294.5z"/>
<path class="st0" d="M613.9,296c4,0,7.4-0.2,10.4-0.5c-18.4-3.3-38.2-22.8-80.8-20.5c-0.4,0-0.7,0.1-1.1,0.1
	C578.8,277.4,596,296,613.9,296z"/>
<path class="st1" d="M470.3,331c0,0,11.2-53.5,57.7-56s65.8,21,85.9,21s25.3-5,31-1.5c0,0-23.9,42-13.4,92c0,0-63.4-74-119-65.2
	C457,330,470.3,331,470.3,331z"/>
<path class="st2" d="M594.3,473.4c0,0-37.6-145.2,23.8-118c0,0-16.6-9-26.4-16.6s-28.5-14.4-36.4-6.1
	C536.4,352.6,521.7,388.2,594.3,473.4z"/>
<g>
	<path class="st3" d="M561.5,329.4c-0.1,0-0.1,0-0.1,0L561.5,329.4C561.4,329.4,561.5,329.4,561.5,329.4z"/>
	<path class="st3" d="M618.1,355.4c-0.8-0.5-1.7-0.9-2.6-1.5C617.1,354.9,618.1,355.4,618.1,355.4z"/>
	<path class="st3" d="M618.1,355.4c-13-5.8-21.6-3.8-27,2.9c3.5,0.5,14.3,4.1,39.6,27.2C630.7,385.5,631.2,363,618.1,355.4z"/>
</g>
<path class="st4" d="M591.6,338.8c-9.8-7.6-28.5-14.4-36.4-6.1c-1.9,2-7.9,7.1-10.7,15.2c0,0,0,2.8,17.1,7.1
	c12.8,3.2,24.6,4.8,31.6,1.2c3.7-1.9,7.9-8.3,24.9-0.8C618.1,355.4,601.4,346.4,591.6,338.8z"/>
</svg>
