<?xml version="1.0" encoding="utf-8"?>
<!-- Generator: Adobe Illustrator 23.0.1, SVG Export Plug-In . SVG Version: 6.00 Build 0)  -->
<svg version="1.1" id="Layer_1" xmlns="http://www.w3.org/2000/svg" xmlns:xlink="http://www.w3.org/1999/xlink" x="0px" y="0px"
	 viewBox="0 0 1080 1080" style="enable-background:new 0 0 1080 1080;" xml:space="preserve">
<style type="text/css">
	.st0{fill:#1E8447;}
	.st1{fill:#2ED67A;}
</style>
<path class="st0" d="M633.7,401.7c0,0,15.3-61-5-75c-20.3-14-45.7,21-45.7,21L633.7,401.7z"/>
<path class="st0" d="M583,347.7c0,0,8.3-47-14-56S508.7,322,508.7,322S556.9,319.8,583,347.7z"/>
<path class="st0" d="M508.7,322c0,0,4-25.6-20-26c-24-0.3-42,35-43.5,45.3C445.2,341.3,481.3,323.4,508.7,322z"/>
<path class="st1" d="M641.7,326.7c-5.6-3.8-11.5-4-17.2-2.2c1.4,0.5,2.8,1.2,4.2,2.2c14.8,10.2,8.3,56.7,5,75c0,0,25.1,3.3,25.1-5
	C658.8,379.6,662,340.7,641.7,326.7z"/>
<path class="st1" d="M597.5,332.5c0.5-14.6-1.4-35.2-15.5-40.9c-4.3-1.7-9.2-1.7-14.3-0.4c0.4,0.1,0.8,0.3,1.3,0.4
	c15.8,6.4,15.1,41.7,14,56C583,347.7,589,339.4,597.5,332.5z"/>
<g>
	<path class="st1" d="M521.1,310.7c-1.7-6.9-6.5-14.5-19.4-14.7c-2.3,0-4.5,0.3-6.6,0.8c16.9,4.4,13.6,25.2,13.6,25.2
		S513.7,316.8,521.1,310.7z"/>
	<path class="st1" d="M508.7,322h5.2C510.6,321.9,508.7,322,508.7,322z"/>
</g>
</svg>
