<?xml version="1.0" encoding="utf-8"?>
<!-- Generator: Adobe Illustrator 23.0.1, SVG Export Plug-In . SVG Version: 6.00 Build 0)  -->
<svg version="1.1" id="Layer_1" xmlns="http://www.w3.org/2000/svg" xmlns:xlink="http://www.w3.org/1999/xlink" x="0px" y="0px"
	 viewBox="0 0 1080 1080" style="enable-background:new 0 0 1080 1080;" xml:space="preserve">
<style type="text/css">
	.st0{fill:#1ED6C4;}
	.st1{fill:#19FDEF;}
</style>
<path class="st0" d="M515.73,281.94c-2.42-0.66-5.61-1-10.64,0.17C508.83,283.25,510.8,284.94,515.73,281.94z"/>
<path class="st0" d="M600.33,273.33c4.75,0.77,8.54,0.67,11.7,0.06c-0.16-0.02-0.3-0.04-0.46-0.06c-24.67-4-23.33-31.67-49-30
	c-1.29,0.08-2.49,0.25-3.65,0.47C577.01,247.52,578.4,269.78,600.33,273.33z"/>
<path class="st0" d="M653.33,268.33c-5.27-2.03-9.6-5.31-12.72-3.92c0.24,0.08,0.47,0.16,0.72,0.25
	c14.53,5.59,30.92,11.89,16.42,83.08c-2.64,13.84-6.57,30.01-12.08,48.92c4.74,7.51,16-3,16-3
	C681.33,316.5,670.67,275,653.33,268.33z"/>
<path class="st1" d="M641.33,264.67c-17.33-6.67-16.33,12.67-41,8.67c-24.67-4-23.33-31.67-49-30c-25.67,1.67-24.33,31-34.67,38
	c-10.33,7-8.33-5-29,2.67c-20.37,7.56-18.79,44.33-18.74,45.39c0.06-0.4,1.93-3.26,40.14-9.63c41.4-6.91,79.6,11.91,98.6,26.91
	s38,50,38,50C678.67,279,658.67,271.33,641.33,264.67z M577,287.67c-2,4-14,8.33-25-6C541,267.33,564.33,260,564.33,260
	c11.33,1-1.33,4.67,3.67,7.67s7.67-2,6,5.33C572.33,280.33,579,283.67,577,287.67z M629.03,290c20.79-5.67,17.56,34.67-2.03,25
	C593.34,298.39,629.03,290,629.03,290z M627.89,337c-7.22-20.5,15.34-8.33,15.34-8.33C656.67,338.67,632.38,349.75,627.89,337z"/>
<path class="st0" d="M557,279.67c-7.67-9.99,1.34-16.57,7.5-19.65c-0.06-0.01-0.11-0.01-0.17-0.02c0,0-23.33,7.33-12.33,21.67
	c9.36,12.2,19.44,10.88,23.47,7.75C570.53,290.14,563.59,288.25,557,279.67z"/>
<path class="st0" d="M632,313c-21.97-10.84-14.4-18.18-6.48-21.97c-8.09,2.7-25.37,10.72,1.48,23.97c4.82,2.38,8.65,1.73,11.38-0.52
	C636.5,314.6,634.37,314.17,632,313z"/>
<path class="st0" d="M632.89,335c-1.79-5.08-1.75-8.14-0.68-9.89c-4.43-0.22-7.77,2.11-4.32,11.89c2.48,7.04,10.98,6.81,15.85,3.51
	C639.38,341.3,634.63,339.96,632.89,335z"/>
</svg>
