<?xml version="1.0" encoding="utf-8"?>
<!-- Generator: Adobe Illustrator 23.0.1, SVG Export Plug-In . SVG Version: 6.00 Build 0)  -->
<svg version="1.1" id="Layer_1" xmlns="http://www.w3.org/2000/svg" xmlns:xlink="http://www.w3.org/1999/xlink" x="0px" y="0px"
	 viewBox="0 0 1080 1080" style="enable-background:new 0 0 1080 1080;" xml:space="preserve">
<style type="text/css">
	.st0{fill:#219B8C;}
	.st1{fill:#19FDEF;}
</style>
<path class="st0" d="M515.7,283.9c-2.4-0.7-5.6-1-10.6,0.2C508.8,285.3,510.8,286.9,515.7,283.9z"/>
<path class="st0" d="M600.3,275.3c4.7,0.8,8.5,0.7,11.7,0.1c-0.2,0-0.3,0-0.5-0.1c-24.7-4-23.3-31.7-49-30c-1.3,0.1-2.5,0.3-3.6,0.5
	C577,249.5,578.4,271.8,600.3,275.3z"/>
<path class="st0" d="M653.3,270.3c-5.3-2-9.6-5.3-12.7-3.9c0.2,0.1,0.5,0.2,0.7,0.3c14.5,5.6,30.9,11.9,16.4,83.1
	c-2.6,13.8-6.6,30-12.1,48.9c4.7,7.5,16-3,16-3C681.3,318.5,670.7,277,653.3,270.3z"/>
<path class="st1" d="M641.3,266.7c-17.3-6.7-16.3,12.7-41,8.7c-24.7-4-23.3-31.7-49-30c-25.7,1.7-24.3,31-34.7,38
	c-10.3,7-8.3-5-29,2.7c-20.4,7.6-18.8,44.3-18.7,45.4c0.1-0.4,1.9-3.3,40.1-9.6c41.4-6.9,79.6,11.9,98.6,26.9s38,50,38,50
	C678.7,281,658.7,273.3,641.3,266.7z M577,289.7c-2,4-14,8.3-25-6c-11-14.3,12.3-21.7,12.3-21.7c11.3,1-1.3,4.7,3.7,7.7s7.7-2,6,5.3
	C572.3,282.3,579,285.7,577,289.7z M629,292c20.8-5.7,17.6,34.7-2,25C593.3,300.4,629,292,629,292z M627.9,339
	c-7.2-20.5,15.3-8.3,15.3-8.3C656.7,340.7,632.4,351.7,627.9,339z"/>
<path class="st0" d="M557,281.7c-7.7-10,1.3-16.6,7.5-19.6c-0.1,0-0.1,0-0.2,0c0,0-23.3,7.3-12.3,21.7c9.4,12.2,19.4,10.9,23.5,7.7
	C570.5,292.1,563.6,290.2,557,281.7z"/>
<path class="st0" d="M632,315c-22-10.8-14.4-18.2-6.5-22c-8.1,2.7-25.4,10.7,1.5,24c4.8,2.4,8.7,1.7,11.4-0.5
	C636.5,316.6,634.4,316.2,632,315z"/>
<path class="st0" d="M632.9,337c-1.8-5.1-1.7-8.1-0.7-9.9c-4.4-0.2-7.8,2.1-4.3,11.9c2.5,7,11,6.8,15.8,3.5
	C639.4,343.3,634.6,342,632.9,337z"/>
</svg>
