<?xml version="1.0" encoding="utf-8"?>
<!-- Generator: Adobe Illustrator 23.0.1, SVG Export Plug-In . SVG Version: 6.00 Build 0)  -->
<svg version="1.1" id="Layer_1" xmlns="http://www.w3.org/2000/svg" xmlns:xlink="http://www.w3.org/1999/xlink" x="0px" y="0px"
	 viewBox="0 0 1080 1080" style="enable-background:new 0 0 1080 1080;" xml:space="preserve">
<style type="text/css">
	.st0{fill:#139B4A;}
	.st1{fill:#E6E7E8;}
	.st2{fill:#FFFFFF;}
	.st3{fill:#CECECE;}
	.st4{fill:#DBDBDB;}
	.st5{fill:#BCBCBC;}
</style>
<ellipse transform="matrix(0.814 -0.5808 0.5808 0.814 -142.1053 339.7342)" class="st0" cx="459.5" cy="391.8" rx="42.3" ry="24.9"/>
<path class="st1" d="M472.9,372.5c0,0,7.1,15.5-12.4,23.5s-21.5,3.7-21.5,3.7s-38.4-84.1,30.8-99.4
	C469.8,300.3,440.8,338,472.9,372.5z"/>
<path class="st2" d="M443.9,399.7c0,0-34.4-81.6,25.6-98.6c0.3-0.5,0.5-0.7,0.5-0.7c-63.9,15.3-28.4,99.4-28.4,99.4s0.6,1.5,4.7,1.1
	C444.2,400.5,443.9,399.7,443.9,399.7z"/>
<path class="st3" d="M472.9,372.5c-32.1-34.5-3.1-72.2-3.1-72.2c-2.9,0.6-5.5,1.4-8.1,2.3c-5.6,8.6-22.8,40.4,4.7,69.9
	c0,0,7.1,15.5-12.4,23.5c-6.3,2.6-10.7,3.9-13.9,4.4c1.9,0.7,7.1,1,20.4-4.4C480,388,472.9,372.5,472.9,372.5z"/>
<path class="st4" d="M724.2,379.2c0,0-2.8,8.9,12.4,23.5c9.2,8.8,21.5,3.7,21.5,3.7s38.4-84.1-30.8-99.4
	C727.3,307,756.3,344.7,724.2,379.2z"/>
<path class="st2" d="M730.6,388.7c32.1-37.7,3.1-78.9,3.1-78.9c7.9,1.9,6.9,0.7-2-1.5c0,0,29,41.2-3.1,78.9L730.6,388.7z"/>
<path class="st5" d="M727.3,307c0,0,0.5,0.6,1.3,1.8c59.8,19.2,24,97.5,24,97.5s-2.2,0.9-5.5,1.3c6,0.8,11-1.3,11-1.3
	S796.5,322.3,727.3,307z"/>
<path class="st0" d="M747.4,429.5c9.9-0.1,16.3-22,10.7-23.1c-13.7-2.8-28.6-17.9-33.9-27.2c-3.9-6.8-12.3-2.5-16.3,2
	C723.2,395.5,736.5,411.8,747.4,429.5z"/>
</svg>
