<?xml version="1.0" encoding="utf-8"?>
<!-- Generator: Adobe Illustrator 23.0.1, SVG Export Plug-In . SVG Version: 6.00 Build 0)  -->
<svg version="1.1" id="Layer_1" xmlns="http://www.w3.org/2000/svg" xmlns:xlink="http://www.w3.org/1999/xlink" x="0px" y="0px"
	 viewBox="0 0 1080 1080" style="enable-background:new 0 0 1080 1080;" xml:space="preserve">
<style type="text/css">
	.st0{fill:#5E17A6;}
	.st1{fill:#3C156B;}
	.st2{fill:#19FDEF;}
	.st3{fill:#08B5A4;}
	.st4{fill:#3ADDC9;}
	.st5{fill:#167A6E;}
	.st6{fill:#69FFE9;}
	.st7{fill:#27D8C3;}
</style>
<path class="st0" d="M667.1,404.5c0,0,5.8-8.5-3.3-14.1c0,0-0.8,17-5.5,18c0,0,2.7-11.3-5-13.7c0,0,3.3,6.7,1.7,8c0,0-5.5-6.7-7.4-7
	c0,0,5.1,10.7,2.4,12.7c0,0-14.3-14.7-21.2-1.3c0,0,9.8-2.3,13.2,1.3c3.3,3.7,2.6,5.7,2.6,5.7s-7-4.7-10.6,0c0,0,7.3-0.3,8.7,2.7
	c0,0-23.7-1.7-21.7,11.3c0,0,14-8.9,20.3-3c0,0-11,0.7-12.5,7.7c0,0,16.3-4.3,16.1,5.7c0,0-11.9,4.3-8.6,16.3c0,0,5.5-8.3,8.6-6.7
	c0,0-3.1,11.7,2.7,16c5.8,4.3,1.4-12.3,4.4-10.7c0,0,7,2.8,5.7,11.4c0,0,2.3-7.4,6.1-5.4s12.9,17,15.5-1c0,0,2.7,10.2,10.7,8.8
	c0,0-5.3-10.4-2.7-13.8c2.7-3.3,18.9-7,20.5,0c0,0-1-15.8-7.5-13.7c0,0,5.3-11,12-5.7c0,0,0.3-7.4-10-5.2c0,0,1.7-6.4,7-6.4
	c0,0-4.3-8.3-15.7-6.3C682.3,418,667.1,404.5,667.1,404.5z"/>
<path class="st1" d="M669.1,409.6c0,0,5.1-6.3-1.7-11.3c0,0-1.7,13.3-5.4,13.9c0,0-1.1-6.4-3.8-11c0,0,0,6.3-1.4,7.3
	c0,0-0.9-1.8-2.3-2.2c0,0,2.2,4.3,0,5.7c0,0-1.3-2.4-9.9-4.4c0,0,2.2,1.4,5.3,4.4c2.8,2.7,1.1,3.9,1.1,3.9s-2.6-0.7-7.3-0.4
	c0,0,2.8-0.4,3.6,2c0,0-0.5-0.5-9.6,3.3c0,0,5.4-1.4,10,3.6c0,0-8.7-0.1-10.3,5.3c0,0,13.1-2.4,12.3,5.4c0,0-2.5-0.2-4.9,7.1
	c0,0,2-1,4.3,0.5c0,0-4.4,5.1-0.1,8.9s3.1-5.8,5.3-4.3c0,0,6.4,0.2,4.8,6.9c0,0,3.2-4.3,6.1-2.5s12.3,13,15.5-1
	c0,0-1.1,12.5,5.3,11.9c0,0-1.4-13,0.9-15.4s12.7-4.1,18.4-0.8c0,0-4.3-8.7-10-6c0,0,3.8-6,9-8c0,0-0.6-2.4-8.9-1.3
	c0,0,1.7-5,5.9-4.7c0,0-2.9-6.8-12-5.9C680.3,421.2,669.1,409.6,669.1,409.6z"/>
<path class="st2" d="M654.3,415.6c14.5-15,40-18.3,20.3-97.6c0,0,54.6,35.9,23.9,116.2C686,466.7,628.1,442.8,654.3,415.6z"/>
<path class="st3" d="M702.8,421.3c-8.2,4.3-15.8,10.5-28.2,9.7c-14.2-0.9-21.8-8.2-22.7-12.6c-19.8,26,34.5,47.2,46.5,15.9
	C700.1,429.8,701.5,425.5,702.8,421.3z"/>
<path class="st3" d="M707.4,396.8c0.7-8.5,0.4-16.2-0.6-23.3c-6.4,6.2-12.1,12.8-21.1,11c-2.3-0.5-4.1-1.3-5.5-2.3
	c-2.1,9.3-6.1,15.2-10.6,19.9c0.9,1.4,2.6,2,5,2.9C694.7,412,698.4,402.7,707.4,396.8z"/>
<path class="st3" d="M699.9,349.9c-2.5-5.6-5.4-10.4-8.4-14.5c-1.5,3-4.1,6.4-8.2,6.6c-1.3,0.1-2.6,0-3.8-0.1
	c1.3,7.9,2,14.9,2.2,20.9c1.7,0,4.3,1.9,7.6,0.5C694.2,361.2,697,353.4,699.9,349.9z"/>
<path class="st4" d="M674.6,318c0.2,0.7,0.3,1.4,0.5,2c13.6,13,40.6,48.6,16.9,110.5c-6.3,16.3-24,18.4-36.8,12.9
	c12.3,9.5,35.9,10.2,43.3-9.1C729.2,353.9,674.6,318,674.6,318z"/>
<path class="st5" d="M696.8,354.7c1.1-1.8,2.1-3.6,3.1-4.8c-1.3-2.8-2.6-5.4-4-7.8c0,0,0-0.1-0.1-0.1c-0.3-0.6-0.6-1.1-1-1.6
	c0-0.1-0.1-0.1-0.1-0.2c-0.3-0.5-0.6-1-1-1.5c0-0.1-0.1-0.1-0.1-0.2c-0.3-0.5-0.7-1-1-1.5c0,0,0-0.1-0.1-0.1c-0.4-0.5-0.7-1-1.1-1.5
	c-0.5,1-1.2,2.1-2,3.1C692.3,343.2,694.8,348.6,696.8,354.7z"/>
<path class="st5" d="M707.4,396.8c0.3-3.2,0.4-6.3,0.4-9.2c0,0,0-0.1,0-0.1c0-1,0-1.9,0-2.8c0,0,0-0.1,0-0.1c0-0.9-0.1-1.9-0.1-2.8
	c0,0,0,0,0-0.1c-0.1-0.9-0.1-1.9-0.2-2.8c0,0,0,0,0,0c-0.2-1.9-0.4-3.7-0.6-5.4c-1.9,1.8-3.7,3.7-5.6,5.3c0.4,7.3-0.1,15.3-1.5,24
	C702.2,400.9,704.5,398.7,707.4,396.8z"/>
<path class="st5" d="M700.5,428.5c0.1-0.3,0.2-0.7,0.3-1c0.3-1,0.6-2,0.9-2.9c0-0.1,0-0.1,0.1-0.2c0.3-1,0.6-2.1,0.9-3.1
	c0,0,0,0,0,0c-3.1,1.6-6.1,3.5-9.3,5.2c-0.5,1.3-1,2.7-1.5,4c-6.2,16.3-24,18.4-36.8,12.9c0.1,0,0.1,0.1,0.2,0.1
	c0.2,0.2,0.5,0.4,0.8,0.6c0.1,0.1,0.2,0.2,0.3,0.2c0.3,0.2,0.7,0.4,1,0.7c0,0,0.1,0.1,0.1,0.1c0.4,0.2,0.8,0.5,1.2,0.7
	c0.1,0,0.1,0.1,0.2,0.1c0.3,0.2,0.7,0.4,1,0.5c0.1,0.1,0.2,0.1,0.3,0.2c0.3,0.2,0.7,0.3,1,0.5c0.1,0,0.2,0.1,0.3,0.1
	c0.4,0.2,0.8,0.3,1.2,0.5c0.1,0,0.1,0,0.2,0.1c0.5,0.2,0.9,0.3,1.4,0.5c0,0,0,0,0.1,0c0.4,0.1,0.9,0.3,1.3,0.4
	c0.1,0,0.2,0.1,0.3,0.1c0.4,0.1,0.7,0.2,1.1,0.3c0.1,0,0.2,0.1,0.4,0.1c0.4,0.1,0.8,0.2,1.2,0.2c0.1,0,0.2,0,0.2,0
	c1,0.2,2,0.3,3,0.4c0.1,0,0.2,0,0.3,0c0.4,0,0.8,0,1.2,0.1c0.1,0,0.3,0,0.4,0c0.4,0,0.8,0,1.2,0c0.1,0,0.2,0,0.3,0c1,0,2-0.1,3-0.2
	c0.1,0,0.2,0,0.3,0c0.4-0.1,0.7-0.1,1.1-0.2c0.1,0,0.3-0.1,0.4-0.1c0.4-0.1,0.7-0.1,1.1-0.2c0.1,0,0.3-0.1,0.4-0.1
	c0.4-0.1,0.9-0.2,1.3-0.3c0,0,0.1,0,0.1,0c0.5-0.1,0.9-0.3,1.4-0.5c0.1,0,0.2-0.1,0.3-0.1c0.3-0.1,0.7-0.3,1-0.4
	c0.1-0.1,0.3-0.1,0.4-0.2c0.3-0.1,0.6-0.3,0.9-0.4c0.1-0.1,0.3-0.1,0.4-0.2c0.3-0.2,0.7-0.4,1-0.6c0.1-0.1,0.2-0.1,0.3-0.2
	c0.4-0.3,0.8-0.5,1.2-0.8c0.1-0.1,0.2-0.1,0.2-0.2c0.3-0.2,0.6-0.5,0.9-0.7c0.1-0.1,0.3-0.2,0.4-0.3c0.3-0.2,0.5-0.5,0.8-0.7
	c0.1-0.1,0.3-0.2,0.4-0.4c0.3-0.3,0.5-0.5,0.8-0.8c0.1-0.1,0.2-0.2,0.3-0.3c0.3-0.4,0.7-0.8,1-1.2c0-0.1,0.1-0.1,0.1-0.2
	c0.3-0.4,0.5-0.7,0.8-1.1c0.1-0.1,0.2-0.3,0.3-0.5c0.2-0.3,0.4-0.6,0.6-1c0.1-0.2,0.2-0.3,0.3-0.5c0.2-0.3,0.4-0.7,0.5-1
	c0.1-0.2,0.2-0.3,0.2-0.5c0.2-0.5,0.5-1.1,0.7-1.6c0.4-1.2,0.9-2.3,1.3-3.5C700,430,700.2,429.3,700.5,428.5z"/>
<path class="st6" d="M680,326.8c3.1,8.7,5.4,17.6,7.2,26.7c1.7,9.1,2.8,18.4,2.3,27.8c-0.3,4.7-0.9,9.5-2.4,14.1
	c-1.4,4.6-3.3,9-5.7,13.1c-2.3,4.2-5.2,8-8.4,11.6c-1.6,1.8-3.3,3.5-5.1,5.1c-0.9,0.8-1.8,1.6-2.8,2.3c-1,0.8-1.9,1.4-3,2.2
	c-1.3,0.9-3.1,0.5-4-0.8c-0.8-1.3-0.5-3,0.7-3.9l0.1-0.1c0.7-0.5,1.6-1.3,2.5-1.9c0.8-0.7,1.6-1.4,2.4-2.2c1.6-1.5,3.1-3.1,4.6-4.7
	c2.9-3.3,5.5-6.8,7.8-10.6c2.2-3.8,4.1-7.7,5.6-11.9c1.5-4.1,2.3-8.4,2.8-12.8c0.9-8.9,0.3-18-0.7-27c-1.1-9-2.8-18-5-26.9l0,0
	c-0.1-0.3,0.1-0.5,0.4-0.6C679.7,326.5,680,326.6,680,326.8z"/>
<path class="st7" d="M658.3,426.1c-0.5,0.9-0.5,2.1,0.1,3c0.9,1.3,2.6,1.7,4,0.8c0.6-0.4,1.1-0.7,1.6-1.1
	C661.7,428,659.8,427.1,658.3,426.1z"/>
<path class="st7" d="M687.2,395.5c1.1-3.5,1.7-7.1,2.1-10.7c-1.2,0.1-2.4,0-3.6-0.3c-0.4-0.1-0.9-0.2-1.3-0.3
	c-0.5,3.3-1.2,6.5-2.4,9.6c-1.4,4.1-3.3,8.1-5.6,11.8c2.2,0.7,4.1,1.1,5.9,1.4C684.3,403.4,686,399.5,687.2,395.5z"/>
<path class="st7" d="M687.2,353.5c-0.8-3.9-1.6-7.8-2.6-11.7c-0.4,0.1-0.8,0.2-1.3,0.2c-0.4,0-0.7,0-1.1,0c0.7,4,1.3,8,1.8,12
	c0.4,3.2,0.7,6.4,0.9,9.5c1.1,0.3,2.4,0.4,3.8-0.1C688.4,360.2,687.9,356.8,687.2,353.5z"/>
</svg>
