<?xml version="1.0" encoding="utf-8"?>
<!-- Generator: Adobe Illustrator 23.0.1, SVG Export Plug-In . SVG Version: 6.00 Build 0)  -->
<svg version="1.1" id="Layer_1" xmlns="http://www.w3.org/2000/svg" xmlns:xlink="http://www.w3.org/1999/xlink" x="0px" y="0px"
	 viewBox="0 0 1080 1080" style="enable-background:new 0 0 1080 1080;" xml:space="preserve">
<style type="text/css">
	.st0{fill:#2ED67A;}
</style>
<path class="st0" d="M471.83,375c0,0-19.83-11.84-19.21-39.4c0.63-27.56,0.38-60.6-17.12-95.6s-10-60-14-81s-15.5-33.5-30-23.5
	s-15,32.5,0,46.5s23,18,28.5,37.5s24,43.06,22.5,71.53s-5.5,76.47,8,101.47S480.5,380,471.83,375z"/>
<path class="st0" d="M802,119.5c-25-11-33.5,38.75-36,46.75s-33.5,36.25-41,70.25s9,86,5.87,113c-3.13,27-30.37,24.99-30.37,24.99
	c-0.04-0.04-0.07-0.05-0.1-0.07c8.07,6.92,15.64,14.35,22.65,22.24c0,0,0,0,0,0C750.56,384.74,749.5,333.5,742,296.5
	s-17.67-68.44,7.76-98.96c17.77-21.33,14.56-20.64,33.94-24.53C800,169.75,827,130.5,802,119.5z"/>
</svg>
