<?xml version="1.0" encoding="utf-8"?>
<!-- Generator: Adobe Illustrator 23.0.1, SVG Export Plug-In . SVG Version: 6.00 Build 0)  -->
<svg version="1.1" id="Layer_1" xmlns="http://www.w3.org/2000/svg" xmlns:xlink="http://www.w3.org/1999/xlink" x="0px" y="0px"
	 viewBox="0 0 1080 1080" style="enable-background:new 0 0 1080 1080;" xml:space="preserve">
<style type="text/css">
	.st0{fill:#2ED67A;}
	.st1{fill:#259954;}
</style>
<path class="st0" d="M471.8,375c0,0-19.8-11.8-19.2-39.4c0.6-27.6,0.4-60.6-17.1-95.6s-10-60-14-81s-15.5-33.5-30-23.5
	s-15,32.5,0,46.5s23,18,28.5,37.5s24,43.1,22.5,71.5s-5.5,76.5,8,101.5S480.5,380,471.8,375z"/>
<path class="st1" d="M471.8,375c0,0-19.8-11.8-19.2-39.4S453,275,435.5,240s-10-60-14-81c-3-16-10.4-27-20.2-27
	c7.3,3.1,12.7,12.9,15.2,26c4,21-3.5,46,14,81s17.7,68,17.1,95.6s19.2,39.4,19.2,39.4c6.3,3.6-0.6,24.3-10,25.9
	C468.4,406.8,479.2,379.2,471.8,375z"/>
<path class="st0" d="M802,119.5c-25-11-33.5,38.8-36,46.8s-33.5,36.3-41,70.3s9,86,5.9,113c-3.1,27-30.4,25-30.4,25
	c0,0-0.1,0-0.1-0.1c8.1,6.9,15.6,14.4,22.7,22.2c0,0,0,0,0,0c27.5-11.9,26.4-63.2,18.9-100.2s-17.7-68.4,7.8-99
	c17.8-21.3,14.6-20.6,33.9-24.5C800,169.8,827,130.5,802,119.5z"/>
<path class="st1" d="M802,119.5c-1.1-0.5-2.3-0.9-3.3-1.1c0.1,0,0.2,0.1,0.3,0.1c25,11-2,50.3-18.3,53.5
	c-19.4,3.9-16.2,3.2-33.9,24.5c-25.4,30.5-15.3,62-7.8,99c7.4,36.3,8.5,86.4-17.5,99.5c0.5,0.6,1,1.1,1.5,1.7c0,0,0,0,0,0
	c27.5-11.9,26.4-63.2,18.9-100.2s-17.7-68.4,7.8-99c17.8-21.3,14.6-20.6,33.9-24.5C800,169.8,827,130.5,802,119.5z"/>
</svg>
