<?xml version="1.0" encoding="utf-8"?>
<!-- Generator: Adobe Illustrator 23.0.1, SVG Export Plug-In . SVG Version: 6.00 Build 0)  -->
<svg version="1.1" id="Layer_1" xmlns="http://www.w3.org/2000/svg" xmlns:xlink="http://www.w3.org/1999/xlink" x="0px" y="0px"
	 viewBox="0 0 1080 1080" style="enable-background:new 0 0 1080 1080;" xml:space="preserve">
<style type="text/css">
	.st0{fill:#5E17A6;}
	.st1{fill:#340966;}
	.st2{fill:#180633;}
	.st3{fill:#FA650A;}
	.st4{fill:#D65F1D;}
	.st5{fill:#E6E7E8;}
	.st6{fill:#A7A9AC;}
	.st7{fill:#FFFFFF;}
</style>
<path class="st0" d="M537.5,607.5c0,0,75.8,41.5,107.4,37.8c31.6-3.8,61.9,11.6,59.1,22.4c-2.9,10.8-14.9,42.3-24.9,41.1
	c-16.4-2-111.6,22.7-135.6,14.7s-47.7-17.8-48-45.5C495.3,653,499.5,620.5,537.5,607.5z"/>
<ellipse transform="matrix(0.3514 -0.9362 0.9362 0.3514 -257.917 990.3127)" class="st1" cx="585.8" cy="681.3" rx="38.2" ry="48.3"/>
<ellipse transform="matrix(0.3514 -0.9362 0.9362 0.3514 -265.0214 990.383)" class="st2" cx="582.3" cy="686.5" rx="30.1" ry="38"/>
<path class="st3" d="M624.8,716.6c0-31.4-28-56.9-62.6-56.9c-28.1,0-51.9,16.8-59.8,40c8.8,12.1,24.9,18.3,41.2,23.8
	C557,728,592.9,722.3,624.8,716.6C624.7,716.7,624.8,716.6,624.8,716.6z"/>
<path class="st4" d="M569.1,670.2c20.4,0,38.5,8.8,49.9,22.5c-9.9-19.5-31.6-33.1-56.9-33.1c-28.1,0-51.9,16.8-59.8,40
	c2.2,3,4.9,5.7,7.9,8.1C518.9,685.9,542,670.2,569.1,670.2z"/>
<path class="st5" d="M514,757.5c0,0,20-54,37-82.5c12.6-21.1,32.2-35.6,41.6-41.7c-28.4-11.1-55.1-25.8-55.1-25.8
	C480,680,514,757.5,514,757.5z"/>
<path class="st6" d="M636.2,681.6c-0.7-0.9-1.5-1.8-2.3-2.7c0,0-13.6,30.8-29.7,41.2l7-1.2C624.7,709.2,634.5,685.7,636.2,681.6z"/>
<path class="st6" d="M576.5,681c0,0-27.6,26.4-31.4,42.9c1.7,0.4,3.8,0.7,6,0.9C553.4,708.8,576.5,681,576.5,681z"/>
<path class="st6" d="M602.6,637c0.4,0.1,0.7,0.3,1.1,0.4c-1.8-0.6-3.6-1.3-5.4-1.9l-1.5-0.3c0,0,11,22,13.5,41l3.6-3.3
	C612,659.3,605.9,644.3,602.6,637z"/>
<path class="st6" d="M642.3,646.3l-6-0.6c0,0,16,22,17,35c0,0,1.5-1,3.7-2.8C656.1,667.9,646.7,652.8,642.3,646.3z"/>
<path class="st5" d="M636.5,681c0,0-11.5,28-27,38l5.1-0.6c12.1-2.1,24.1-4.3,34.5-6C648.9,707.1,647.5,693.2,636.5,681z"/>
<path class="st5" d="M604.2,720.2c-5.4-5.8-26.4-28.7-27.7-39.1c0,0-23.1,27.8-25.4,43.9C563.7,725.9,583.6,723.4,604.2,720.2z"/>
<path class="st5" d="M614,673.5l30.9-28.2c-11.7-0.3-26.2-2.6-42.3-8.3C605.9,644.4,612.2,659.8,614,673.5z"/>
<path class="st5" d="M668.2,645.7l-9.8-0.9c-4.4-0.2-9,0-13.5,0.5c-1,0.1-2,0.2-3.1,0.2c4.2,6.1,14.5,22.2,15.3,32.5
	c0,0,20-13.9,24.1-29.3C677.1,647.4,672.8,646.4,668.2,645.7z"/>
<path class="st5" d="M652.5,711.5c0,0,41-33.5,43-99.5c0,0,27.5,40.5-8,94C687.5,706,677.5,721,652.5,711.5z"/>
<path class="st7" d="M535.1,618.7c-10,12.3-33.9,47.2-23.2,123.2c0,0-6.1-71.7,30.6-119C546.3,618.4,539.6,614.5,535.1,618.7z"/>
</svg>
