<?xml version="1.0" encoding="utf-8"?>
<!-- Generator: Adobe Illustrator 23.0.1, SVG Export Plug-In . SVG Version: 6.00 Build 0)  -->
<svg version="1.1" id="Layer_1" xmlns="http://www.w3.org/2000/svg" xmlns:xlink="http://www.w3.org/1999/xlink" x="0px" y="0px"
	 viewBox="0 0 1080 1080" style="enable-background:new 0 0 1080 1080;" xml:space="preserve">
<style type="text/css">
	.st0{fill:#5E17A6;}
	.st1{fill:#FA650A;}
	.st2{fill:#E6E7E8;}
	.st3{fill:#D1D3D4;}
	.st4{fill:none;stroke:#5E17A6;stroke-miterlimit:10;}
</style>
<path class="st0" d="M537.5,607.5c0,0,75.75,41.54,107.38,37.77c31.62-3.77,61.93,11.58,59.06,22.42
	c-2.87,10.84-7.54,42.99-24.86,41.14c-16.44-1.75-111.58,22.68-135.58,14.67s-47.74-17.84-48-45.5
	C495.27,653,499.5,620.5,537.5,607.5z"/>
<path class="st1" d="M624.75,716.61c0-31.42-28.04-56.89-62.63-56.89c-28.11,0-51.9,16.83-59.82,40.01
	c8.8,12.08,24.93,18.35,41.19,23.78c13.48,4.5,49.43-1.24,81.25-6.82C624.75,716.66,624.75,716.63,624.75,716.61z"/>
<path class="st2" d="M514,757.5c0,0,20-54,37-82.5c12.57-21.07,32.23-35.57,41.63-41.7c-28.36-11.11-55.13-25.8-55.13-25.8
	C480,680,514,757.5,514,757.5z"/>
<path class="st3" d="M636.23,681.65c-0.71-0.91-1.47-1.82-2.28-2.71c0,0-12,29.21-28.18,39.65l5.16-0.57
	C624.36,708.26,634.5,685.68,636.23,681.65z"/>
<path class="st3" d="M576.5,681.02c0,0-27.64,26.4-31.4,42.93c1.74,0.43,3.77,0.73,6.04,0.92
	C553.4,708.84,576.5,681.02,576.5,681.02z"/>
<path class="st3" d="M602.61,637.02c0.36,0.13,0.72,0.25,1.09,0.38c-1.79-0.62-3.59-1.27-5.39-1.94l-1.53-0.28c0,0,11,22,13.5,41
	l3.63-3.32C611.99,659.28,605.88,644.32,602.61,637.02z"/>
<path class="st4" d="M703.94,667.69c-2.87,10.84-7.54,42.99-24.86,41.14c-16.44-1.75-111.58,22.68-135.58,14.67"/>
<path class="st3" d="M642.25,646.25l-5.98-0.58c0,0,16,22,17,35c0,0,1.48-1.04,3.71-2.84C656.13,667.89,646.67,652.82,642.25,646.25
	z"/>
<path class="st2" d="M636.5,681.02c0,0-11.5,27.98-27,37.98l5.05-0.56c12.14-2.06,24.1-4.25,34.47-6.03
	C648.9,707.08,647.46,693.17,636.5,681.02z"/>
<path class="st2" d="M604.22,720.15c-5.43-5.77-26.41-28.67-27.72-39.13c0,0-23.1,27.82-25.36,43.86
	C563.67,725.91,583.64,723.45,604.22,720.15z"/>
<path class="st2" d="M614,673.5l30.88-28.23l0,0c-10.62,1.27-26.23-2.58-42.26-8.25C605.93,644.44,612.19,659.75,614,673.5z"/>
<path class="st2" d="M668.23,645.72l-9.84-0.95c-4.42-0.18-8.95-0.05-13.52,0.5c-1,0.12-2.05,0.19-3.13,0.22
	c4.17,6.12,14.46,22.16,15.26,32.51c0,0,19.98-13.95,24.1-29.29C677.13,647.45,672.8,646.42,668.23,645.72z"/>
<path class="st2" d="M652.5,711.5c0,0,41-33.5,43-99.5c0,0,27.5,40.5-8,94C687.5,706,677.5,721,652.5,711.5z"/>
</svg>
