<?xml version="1.0" encoding="utf-8"?>
<!-- Generator: Adobe Illustrator 23.0.1, SVG Export Plug-In . SVG Version: 6.00 Build 0)  -->
<svg version="1.1" id="Layer_1" xmlns="http://www.w3.org/2000/svg" xmlns:xlink="http://www.w3.org/1999/xlink" x="0px" y="0px"
	 viewBox="0 0 1080 1080" style="enable-background:new 0 0 1080 1080;" xml:space="preserve">
<style type="text/css">
	.st0{fill:#5E17A6;}
	.st1{fill:#FA650A;}
	.st2{fill:#E6E7E8;}
	.st3{fill:#BCBEC0;}
</style>
<ellipse class="st0" cx="608.02" cy="667" rx="60.25" ry="54.5"/>
<path class="st1" d="M591.27,657.5c-17.34,0-32.77,7.06-42.75,18.06c4.54,26.03,29.45,45.94,59.5,45.94
	c14.18,0,27.2-4.44,37.49-11.85c0.17-1.53,0.26-3.08,0.26-4.65C645.77,678.77,621.37,657.5,591.27,657.5z"/>
<path class="st2" d="M608.02,693.49c-8.73,0-15.8,3.51-15.8,22.22c0,1.35,0.09,2.66,0.25,3.94c4.96,1.2,10.17,1.84,15.55,1.84
	c5.46,0,10.75-0.67,15.78-1.9c0.1-1.26,0.12-2.56,0.03-3.89C622.44,695.67,616.75,693.49,608.02,693.49z"/>
<g>
	<path class="st3" d="M595.11,720.23c0.19,0.04,0.38,0.07,0.56,0.11C595.49,720.3,595.3,720.27,595.11,720.23z"/>
	<path class="st3" d="M597.54,720.67c0.14,0.02,0.29,0.05,0.43,0.07C597.83,720.71,597.69,720.69,597.54,720.67z"/>
	<path class="st3" d="M600.25,721.04c0.17,0.02,0.34,0.03,0.51,0.05C600.59,721.08,600.42,721.06,600.25,721.04z"/>
	<path class="st3" d="M592.9,719.75c0.11,0.02,0.21,0.05,0.32,0.07C593.11,719.8,593,719.78,592.9,719.75z"/>
	<path class="st3" d="M592.22,715.71c0-13.3,3.57-18.91,8.77-21.05c-7.28,0.88-12.77,5.56-12.77,22.05c0,0.6,0.02,1.19,0.05,1.78
		c1.38,0.43,2.78,0.81,4.2,1.16C592.31,718.37,592.22,717.06,592.22,715.71z"/>
	<path class="st3" d="M602.55,721.27c0.25,0.02,0.51,0.04,0.76,0.06C603.06,721.31,602.8,721.29,602.55,721.27z"/>
	<path class="st3" d="M619.29,720.53c0.17-0.03,0.35-0.05,0.52-0.08c0,0,0,0,0-0.01C619.64,720.48,619.46,720.5,619.29,720.53z"/>
	<path class="st3" d="M605.68,721.45c-0.24-0.01-0.48-0.02-0.71-0.03C605.2,721.43,605.44,721.45,605.68,721.45z"/>
	<path class="st3" d="M617.36,720.83c-0.26,0.04-0.52,0.07-0.77,0.11C616.84,720.91,617.1,720.87,617.36,720.83z"/>
	<path class="st3" d="M610.7,721.44c0.23-0.01,0.45-0.02,0.68-0.03C611.15,721.42,610.93,721.43,610.7,721.44z"/>
	<path class="st3" d="M613.83,721.24c0.07-0.01,0.14-0.01,0.21-0.02C613.97,721.23,613.9,721.24,613.83,721.24z"/>
</g>
<path class="st2" d="M553.82,683.85c-0.83,0.65-1.59,1.34-2.33,2.05c3.98,9.75,10.96,18.17,19.92,24.38
	c0.66-0.49,1.3-1.01,1.93-1.57c14.91-13.48,13.1-19.29,7.71-26.16S568.54,672.29,553.82,683.85z"/>
<path class="st2" d="M548.82,656.88c15.35,7.98,20.03,4.42,24.56-2.49c4.7-7.17,5.68-14.86-9.1-24.85
	C556.49,636.98,551,646.39,548.82,656.88z"/>
<path class="st2" d="M579.64,618.92c0.08,0.62,0.17,1.24,0.3,1.87c3.91,19.71,9.83,21.15,18.49,20.05s15.23-5.48,12.87-24.04
	c-0.19-1.46-0.47-2.88-0.84-4.24c-0.81-0.03-1.61-0.06-2.43-0.06C597.76,612.5,588.1,614.83,579.64,618.92z"/>
<g>
	<path class="st3" d="M601.53,612.84c0.44-0.04,0.89-0.08,1.34-0.11C602.42,612.76,601.98,612.79,601.53,612.84z"/>
	<path class="st3" d="M593.81,614.04c0.75-0.16,1.5-0.31,2.25-0.45C595.31,613.73,594.56,613.88,593.81,614.04z"/>
	<path class="st3" d="M597.64,613.33c0.55-0.09,1.1-0.16,1.65-0.24C598.74,613.16,598.18,613.24,597.64,613.33z"/>
	<path class="st3" d="M606.16,612.55c0,0,0-0.01,0-0.01c-0.23,0.01-0.46,0.02-0.68,0.03C605.7,612.56,605.93,612.56,606.16,612.55z"
		/>
	<path class="st3" d="M598.42,640.84c-8.66,1.1-14.57-0.34-18.49-20.05c-0.12-0.62-0.22-1.24-0.29-1.86
		c-1.31,0.64-2.6,1.31-3.85,2.03c0.05,0.28,0.09,0.55,0.15,0.83c3.91,19.71,9.83,21.15,18.49,20.05c1.7-0.22,3.31-0.56,4.8-1.11
		C598.96,640.77,598.69,640.81,598.42,640.84z"/>
	<path class="st3" d="M590.09,614.97c0.76-0.21,1.53-0.41,2.3-0.6C591.62,614.56,590.85,614.76,590.09,614.97z"/>
	<path class="st3" d="M583.54,617.21c0.64-0.26,1.29-0.51,1.94-0.74C584.83,616.7,584.18,616.95,583.54,617.21z"/>
	<path class="st3" d="M580.25,618.65c0.7-0.33,1.41-0.65,2.12-0.95C581.65,618,580.95,618.32,580.25,618.65z"/>
	<path class="st3" d="M586.88,615.97c0.65-0.22,1.31-0.43,1.97-0.63C588.19,615.54,587.54,615.75,586.88,615.97z"/>
</g>
<path class="st2" d="M621.44,613.87c-0.02,0.08-0.04,0.15-0.05,0.22c-4.21,19.65,0.65,23.31,9.04,25.73
	c7.51,2.16,14.52,1.24,19.62-11.86C642.25,621.1,632.42,616.13,621.44,613.87z"/>
<g>
	<path class="st3" d="M635.24,618.39c0.37,0.17,0.74,0.35,1.11,0.53C635.98,618.73,635.61,618.56,635.24,618.39z"/>
	<path class="st3" d="M637.08,619.27c0.32,0.16,0.64,0.33,0.96,0.5C637.72,619.59,637.4,619.43,637.08,619.27z"/>
	<path class="st3" d="M638.87,620.2c0.28,0.15,0.55,0.3,0.82,0.46C639.42,620.5,639.15,620.35,638.87,620.2z"/>
	<path class="st3" d="M645.92,624.66c-0.1-0.07-0.2-0.15-0.3-0.23C645.72,624.51,645.82,624.58,645.92,624.66z"/>
	<path class="st3" d="M647.22,625.63C647.22,625.63,647.22,625.63,647.22,625.63c-0.01-0.01-0.02-0.01-0.03-0.02
		C647.2,625.62,647.21,625.62,647.22,625.63z"/>
	<path class="st3" d="M641.3,621.59c-0.22-0.14-0.45-0.27-0.67-0.41C640.85,621.32,641.08,621.45,641.3,621.59z"/>
	<path class="st3" d="M642.88,622.57c-0.18-0.12-0.36-0.24-0.54-0.35C642.52,622.33,642.7,622.45,642.88,622.57z"/>
	<path class="st3" d="M644.42,623.59c-0.14-0.1-0.27-0.19-0.41-0.29C644.14,623.4,644.28,623.49,644.42,623.59z"/>
	<path class="st3" d="M633.37,617.56c0.42,0.18,0.83,0.36,1.25,0.54C634.21,617.92,633.79,617.74,633.37,617.56z"/>
	<path class="st3" d="M621.51,613.89c0.59,0.12,1.18,0.25,1.76,0.39C622.69,614.14,622.1,614.01,621.51,613.89z"/>
	<path class="st3" d="M625.57,614.87c0.56,0.15,1.12,0.32,1.68,0.49C626.69,615.19,626.13,615.02,625.57,614.87z"/>
	<path class="st3" d="M630.42,639.83c-8.39-2.41-13.25-6.08-9.04-25.73c0.02-0.08,0.04-0.15,0.05-0.22
		c-1.18-0.24-2.37-0.46-3.58-0.64c-0.18,0.61-0.34,1.23-0.48,1.86c-4.21,19.65,0.65,23.31,9.04,25.73
		c3.69,1.06,7.27,1.38,10.55-0.13C634.86,640.84,632.67,640.47,630.42,639.83z"/>
	<path class="st3" d="M623.55,614.35c0.58,0.14,1.16,0.29,1.73,0.44C624.71,614.64,624.13,614.49,623.55,614.35z"/>
	<path class="st3" d="M631.47,616.8c0.46,0.18,0.92,0.36,1.38,0.55C632.39,617.16,631.93,616.98,631.47,616.8z"/>
	<path class="st3" d="M627.56,615.45c0.53,0.17,1.06,0.34,1.59,0.52C628.63,615.79,628.1,615.62,627.56,615.45z"/>
	<path class="st3" d="M629.53,616.09c0.5,0.17,1,0.36,1.49,0.54C630.53,616.45,630.03,616.27,629.53,616.09z"/>
</g>
<path class="st2" d="M656.93,635.19c-0.52,0.19-1.04,0.37-1.56,0.6c-18.43,8.02-18.58,14.1-15.66,22.33
	c2.92,8.23,8.6,13.72,26.23,7.46c0.78-0.28,1.53-0.58,2.26-0.91C667.69,653.69,663.59,643.55,656.93,635.19z"/>
<g>
	<path class="st3" d="M665.43,650.47c-0.1-0.28-0.2-0.56-0.31-0.83C665.23,649.92,665.33,650.19,665.43,650.47z"/>
	<path class="st3" d="M666.58,654.21c-0.07-0.27-0.15-0.54-0.22-0.8C666.43,653.67,666.51,653.94,666.58,654.21z"/>
	<path class="st3" d="M666.04,652.33c-0.08-0.27-0.17-0.54-0.26-0.82C665.87,651.78,665.96,652.05,666.04,652.33z"/>
	<path class="st3" d="M664.75,648.65c-0.11-0.29-0.23-0.57-0.35-0.86C664.51,648.08,664.63,648.36,664.75,648.65z"/>
	<path class="st3" d="M667.05,656.11c-0.06-0.27-0.12-0.53-0.19-0.79C666.92,655.59,666.99,655.85,667.05,656.11z"/>
	<path class="st3" d="M668.13,663.56C668.13,663.56,668.14,663.56,668.13,663.56c0-0.12-0.02-0.24-0.02-0.36
		C668.11,663.32,668.12,663.44,668.13,663.56z"/>
	<path class="st3" d="M663.18,645.08c-0.15-0.3-0.3-0.6-0.46-0.9C662.88,644.48,663.03,644.78,663.18,645.08z"/>
	<path class="st3" d="M662.29,643.35c-0.17-0.32-0.34-0.63-0.52-0.94C661.95,642.72,662.13,643.03,662.29,643.35z"/>
	<path class="st3" d="M664,646.85c-0.13-0.29-0.27-0.58-0.4-0.88C663.73,646.26,663.87,646.56,664,646.85z"/>
	<path class="st3" d="M667.44,658.05c-0.05-0.26-0.1-0.52-0.15-0.79C667.34,657.52,667.39,657.78,667.44,658.05z"/>
	<path class="st3" d="M659.66,638.95c0.22,0.34,0.45,0.68,0.67,1.02C660.11,639.63,659.88,639.29,659.66,638.95z"/>
	<path class="st3" d="M657.16,635.5c0.32,0.41,0.64,0.82,0.95,1.23C657.8,636.31,657.48,635.91,657.16,635.5z"/>
	<path class="st3" d="M639.71,658.12c-2.92-8.23-2.77-14.31,15.66-22.33c0.52-0.23,1.04-0.41,1.56-0.6
		c-0.02-0.02-0.04-0.05-0.05-0.07c-1.83,0.34-3.68,0.87-5.51,1.67c-18.43,8.02-18.58,14.1-15.66,22.33
		c2.72,7.67,7.85,12.97,22.85,8.56C646.61,670.06,642.18,665.06,639.71,658.12z"/>
	<path class="st3" d="M658.47,637.24c0.26,0.36,0.52,0.72,0.78,1.09C659,637.96,658.74,637.6,658.47,637.24z"/>
	<path class="st3" d="M667.76,660c-0.04-0.26-0.08-0.52-0.12-0.78C667.68,659.48,667.72,659.74,667.76,660z"/>
	<path class="st3" d="M668,661.98c-0.03-0.26-0.05-0.52-0.08-0.78C667.94,661.46,667.97,661.72,668,661.98z"/>
	<path class="st3" d="M660.75,640.67c0.2,0.32,0.4,0.65,0.59,0.97C661.15,641.31,660.95,640.99,660.75,640.67z"/>
</g>
<path class="st2" d="M664.54,682.8c-15.43-12.87-20.94-10.27-26.98-3.97c-6.04,6.3-8.4,13.84,5.1,26.79
	c1.27,1.21,2.6,2.27,3.97,3.21c8.67-6.55,15.26-15.27,18.78-25.23C665.12,683.33,664.85,683.06,664.54,682.8z"/>
<g>
	<path class="st3" d="M654.26,701.92c0.23-0.25,0.46-0.51,0.69-0.77C654.73,701.41,654.5,701.67,654.26,701.92z"/>
	<path class="st3" d="M652.39,703.85c-0.33,0.32-0.65,0.64-0.99,0.95C651.74,704.49,652.07,704.17,652.39,703.85z"/>
	<path class="st3" d="M651.01,705.17c-0.37,0.34-0.74,0.68-1.12,1.01C650.27,705.84,650.64,705.51,651.01,705.17z"/>
	<path class="st3" d="M648.05,707.72c-0.44,0.35-0.88,0.7-1.33,1.04C647.18,708.41,647.62,708.07,648.05,707.72z"/>
	<path class="st3" d="M642.67,705.62c-13.51-12.95-11.15-20.49-5.1-26.79c1.72-1.79,3.4-3.29,5.27-4.21
		c-3.7,0.1-6.43,2.24-9.27,5.21c-6.04,6.3-8.4,13.84,5.1,26.79c1.68,1.61,3.48,2.98,5.33,4.1c0.9-0.61,1.78-1.24,2.64-1.89
		C645.26,707.89,643.93,706.83,642.67,705.62z"/>
	<path class="st3" d="M649.57,706.45c-0.41,0.35-0.82,0.7-1.23,1.04C648.75,707.15,649.16,706.8,649.57,706.45z"/>
	<path class="st3" d="M652.86,703.38c0.29-0.29,0.57-0.58,0.85-0.88C653.43,702.8,653.15,703.1,652.86,703.38z"/>
	<path class="st3" d="M656.89,698.86c0.12-0.15,0.23-0.3,0.35-0.45C657.12,698.56,657.01,698.71,656.89,698.86z"/>
	<path class="st3" d="M655.61,700.41c0.18-0.21,0.35-0.42,0.52-0.63C655.96,699.99,655.79,700.2,655.61,700.41z"/>
	<path class="st3" d="M658.11,697.27c0.05-0.07,0.1-0.15,0.16-0.22C658.22,697.13,658.17,697.2,658.11,697.27z"/>
</g>
</svg>
