<?xml version="1.0" encoding="utf-8"?>
<!-- Generator: Adobe Illustrator 23.0.1, SVG Export Plug-In . SVG Version: 6.00 Build 0)  -->
<svg version="1.1" id="Layer_1" xmlns="http://www.w3.org/2000/svg" xmlns:xlink="http://www.w3.org/1999/xlink" x="0px" y="0px"
	 viewBox="0 0 1080 1080" style="enable-background:new 0 0 1080 1080;" xml:space="preserve">
<style type="text/css">
	.st0{fill:#5E17A6;}
	.st1{fill:#340966;}
	.st2{fill:#180633;}
	.st3{fill:#A7A9AC;}
	.st4{fill:#E6E7E8;}
	.st5{fill:#FA650A;}
	.st6{fill:#D65F1D;}
	.st7{fill:#929293;}
</style>
<path class="st0" d="M599.8,665.6c-14.4,26.6-13.5,54.9,1.8,63.2c15.4,8.3,39.5-6.6,53.8-33.2c14.4-26.6,13.3-65.5,13.3-65.5
	s-27.9-0.7-35.1,2.1C621.6,636.9,608.8,648.9,599.8,665.6z"/>
<ellipse transform="matrix(0.2367 -0.9716 0.9716 0.2367 -195.2011 1124.9338)" class="st1" cx="618.4" cy="686.7" rx="33" ry="21.8"/>
<ellipse transform="matrix(0.2367 -0.9716 0.9716 0.2367 -206.3744 1130.0165)" class="st2" cx="616" cy="696.4" rx="33" ry="21.8"/>
<path class="st3" d="M637.1,630.8c-2.5,10.2-7.1,32.3-2.1,37.2c2.7,2.7,6.8,4.2,10.9,4.7c-1.5-0.7-2.8-1.6-3.9-2.7
	c-5.5-5.5,0.9-32.6,2.9-40.4C641.8,629.9,639.1,630.3,637.1,630.8z"/>
<path class="st4" d="M644.9,629.6c-2,7.8-8.5,34.8-2.9,40.4c6.4,6.4,20.9,6.5,24.3,0.4c1.1-4.4,1.9-8.8,2.5-13
	c1-9.6,1.7-21.8,2-28.3C670.8,629.1,655.8,628.7,644.9,629.6z"/>
<path class="st5" d="M620,678c-9.9-3.1-20.6,0.8-28.5,9.1c-4.5,18.9-1,35.6,10.2,41.6c9.9,5.3,23.3,1.1,35.5-9.6
	C642.1,700.7,634.7,682.6,620,678z"/>
<path class="st6" d="M620,678c-9.9-3.1-20.6,0.8-28.5,9.1c-0.4,1.8-0.8,3.6-1.1,5.4c7.8-6.5,17.4-9.1,26.4-6.3
	c12.8,4,20.3,18,19.4,33.7c0.3-0.3,0.6-0.5,1-0.8C642.1,700.7,634.7,682.6,620,678z"/>
<path class="st7" d="M637.1,630.8c-0.7,2.7-1.5,6.3-2.2,10.2l7.8-1.8c0.9-4,1.7-7.5,2.2-9.6C641.8,629.9,639.1,630.3,637.1,630.8z"
	/>
</svg>
