<?xml version="1.0" encoding="utf-8"?>
<!-- Generator: Adobe Illustrator 23.0.1, SVG Export Plug-In . SVG Version: 6.00 Build 0)  -->
<svg version="1.1" id="Layer_1" xmlns="http://www.w3.org/2000/svg" xmlns:xlink="http://www.w3.org/1999/xlink" x="0px" y="0px"
	 viewBox="0 0 1080 1080" style="enable-background:new 0 0 1080 1080;" xml:space="preserve">
<style type="text/css">
	.st0{fill:#5E17A6;}
	.st1{fill:#340966;}
	.st2{fill:#180633;}
	.st3{fill:#FA650A;}
	.st4{fill:#D65F1D;}
	.st5{fill:#E6E7E8;}
	.st6{fill:#BCBEC0;}
</style>
<ellipse class="st0" cx="608" cy="667" rx="60.3" ry="54.5"/>
<ellipse transform="matrix(0.1558 -0.9878 0.9878 0.1558 -152.9027 1150.1652)" class="st1" cx="596.5" cy="664.5" rx="40.2" ry="44.3"/>
<ellipse transform="matrix(0.1558 -0.9878 0.9878 0.1558 -165.2289 1159.5474)" class="st2" cx="595.8" cy="676.4" rx="38.6" ry="42.6"/>
<path class="st3" d="M591.3,657.5c-17.3,0-32.8,7.1-42.8,18.1c4.5,26,29.4,45.9,59.5,45.9c14.2,0,27.2-4.4,37.5-11.8
	c0.2-1.5,0.3-3.1,0.3-4.7C645.8,678.8,621.4,657.5,591.3,657.5z"/>
<path class="st4" d="M588.1,665.3c14.3-3.3,28.3-1.3,39.7,4.4c-9.7-7.6-22.5-12.2-36.5-12.2c-17.3,0-32.8,7.1-42.8,18.1
	c0.8,4.6,2.3,9,4.3,13.2C560.4,677.6,572.8,668.8,588.1,665.3z"/>
<path class="st5" d="M608,693.5c-8.7,0-15.8,3.5-15.8,22.2c0,1.3,0.1,2.7,0.3,3.9c5,1.2,10.2,1.8,15.6,1.8c5.5,0,10.7-0.7,15.8-1.9
	c0.1-1.3,0.1-2.6,0-3.9C622.4,695.7,616.7,693.5,608,693.5z"/>
<g>
	<path class="st6" d="M595.1,720.2c0.2,0,0.4,0.1,0.6,0.1C595.5,720.3,595.3,720.3,595.1,720.2z"/>
	<path class="st6" d="M597.5,720.7c0.1,0,0.3,0,0.4,0.1C597.8,720.7,597.7,720.7,597.5,720.7z"/>
	<path class="st6" d="M600.3,721c0.2,0,0.3,0,0.5,0.1C600.6,721.1,600.4,721.1,600.3,721z"/>
	<path class="st6" d="M592.9,719.8c0.1,0,0.2,0,0.3,0.1C593.1,719.8,593,719.8,592.9,719.8z"/>
	<path class="st6" d="M592.2,715.7c0-13.3,3.6-18.9,8.8-21.1c-7.3,0.9-12.8,5.6-12.8,22.1c0,0.6,0,1.2,0.1,1.8
		c1.4,0.4,2.8,0.8,4.2,1.2C592.3,718.4,592.2,717.1,592.2,715.7z"/>
	<path class="st6" d="M602.5,721.3c0.3,0,0.5,0,0.8,0.1C603.1,721.3,602.8,721.3,602.5,721.3z"/>
	<path class="st6" d="M619.3,720.5c0.2,0,0.4-0.1,0.5-0.1c0,0,0,0,0,0C619.6,720.5,619.5,720.5,619.3,720.5z"/>
	<path class="st6" d="M605.7,721.5c-0.2,0-0.5,0-0.7,0C605.2,721.4,605.4,721.4,605.7,721.5z"/>
	<path class="st6" d="M617.4,720.8c-0.3,0-0.5,0.1-0.8,0.1C616.8,720.9,617.1,720.9,617.4,720.8z"/>
	<path class="st6" d="M610.7,721.4c0.2,0,0.5,0,0.7,0C611.2,721.4,610.9,721.4,610.7,721.4z"/>
	<path class="st6" d="M613.8,721.2c0.1,0,0.1,0,0.2,0C614,721.2,613.9,721.2,613.8,721.2z"/>
</g>
<path class="st5" d="M553.8,683.9c-0.8,0.7-1.6,1.3-2.3,2c4,9.7,11,18.2,19.9,24.4c0.7-0.5,1.3-1,1.9-1.6
	c14.9-13.5,13.1-19.3,7.7-26.2S568.5,672.3,553.8,683.9z"/>
<path class="st5" d="M548.8,656.9c15.4,8,20,4.4,24.6-2.5c4.7-7.2,5.7-14.9-9.1-24.8C556.5,637,551,646.4,548.8,656.9z"/>
<path class="st5" d="M579.6,618.9c0.1,0.6,0.2,1.2,0.3,1.9c3.9,19.7,9.8,21.2,18.5,20s15.2-5.5,12.9-24c-0.2-1.5-0.5-2.9-0.8-4.2
	c-0.8,0-1.6-0.1-2.4-0.1C597.8,612.5,588.1,614.8,579.6,618.9z"/>
<g>
	<path class="st6" d="M654.3,701.9c0.2-0.3,0.5-0.5,0.7-0.8C654.7,701.4,654.5,701.7,654.3,701.9z"/>
	<path class="st6" d="M652.4,703.8c-0.3,0.3-0.7,0.6-1,1C651.7,704.5,652.1,704.2,652.4,703.8z"/>
	<path class="st6" d="M651,705.2c-0.4,0.3-0.7,0.7-1.1,1C650.3,705.8,650.6,705.5,651,705.2z"/>
	<path class="st6" d="M648.1,707.7c-0.4,0.4-0.9,0.7-1.3,1C647.2,708.4,647.6,708.1,648.1,707.7z"/>
	<path class="st6" d="M642.7,705.6c-13.5-13-11.1-20.5-5.1-26.8c1.7-1.8,3.4-3.3,5.3-4.2c-3.7,0.1-6.4,2.2-9.3,5.2
		c-6,6.3-8.4,13.8,5.1,26.8c1.7,1.6,3.5,3,5.3,4.1c0.9-0.6,1.8-1.2,2.6-1.9C645.3,707.9,643.9,706.8,642.7,705.6z"/>
	<path class="st6" d="M649.6,706.5c-0.4,0.4-0.8,0.7-1.2,1C648.8,707.2,649.2,706.8,649.6,706.5z"/>
	<path class="st6" d="M652.9,703.4c0.3-0.3,0.6-0.6,0.8-0.9C653.4,702.8,653.1,703.1,652.9,703.4z"/>
	<path class="st6" d="M656.9,698.9c0.1-0.1,0.2-0.3,0.3-0.4C657.1,698.6,657,698.7,656.9,698.9z"/>
	<path class="st6" d="M655.6,700.4c0.2-0.2,0.4-0.4,0.5-0.6C656,700,655.8,700.2,655.6,700.4z"/>
	<path class="st6" d="M658.1,697.3c0.1-0.1,0.1-0.1,0.2-0.2C658.2,697.1,658.2,697.2,658.1,697.3z"/>
</g>
<g>
	<path class="st6" d="M601.5,612.8c0.4,0,0.9-0.1,1.3-0.1C602.4,612.8,602,612.8,601.5,612.8z"/>
	<path class="st6" d="M593.8,614c0.7-0.2,1.5-0.3,2.3-0.5C595.3,613.7,594.6,613.9,593.8,614z"/>
	<path class="st6" d="M597.6,613.3c0.5-0.1,1.1-0.2,1.7-0.2C598.7,613.2,598.2,613.2,597.6,613.3z"/>
	<path class="st6" d="M606.2,612.6C606.2,612.5,606.2,612.5,606.2,612.6c-0.2,0-0.5,0-0.7,0C605.7,612.6,605.9,612.6,606.2,612.6z"
		/>
	<path class="st6" d="M598.4,640.8c-8.7,1.1-14.6-0.3-18.5-20c-0.1-0.6-0.2-1.2-0.3-1.9c-1.3,0.6-2.6,1.3-3.9,2
		c0,0.3,0.1,0.6,0.1,0.8c3.9,19.7,9.8,21.2,18.5,20c1.7-0.2,3.3-0.6,4.8-1.1C599,640.8,598.7,640.8,598.4,640.8z"/>
	<path class="st6" d="M590.1,615c0.8-0.2,1.5-0.4,2.3-0.6C591.6,614.6,590.8,614.8,590.1,615z"/>
	<path class="st6" d="M583.5,617.2c0.6-0.3,1.3-0.5,1.9-0.7C584.8,616.7,584.2,617,583.5,617.2z"/>
	<path class="st6" d="M580.2,618.6c0.7-0.3,1.4-0.6,2.1-1C581.7,618,580.9,618.3,580.2,618.6z"/>
	<path class="st6" d="M586.9,616c0.7-0.2,1.3-0.4,2-0.6C588.2,615.5,587.5,615.8,586.9,616z"/>
</g>
<path class="st5" d="M621.4,613.9c0,0.1,0,0.1-0.1,0.2c-4.2,19.6,0.7,23.3,9,25.7c7.5,2.2,14.5,1.2,19.6-11.9
	C642.3,621.1,632.4,616.1,621.4,613.9z"/>
<g>
	<path class="st6" d="M635.2,618.4c0.4,0.2,0.7,0.3,1.1,0.5C636,618.7,635.6,618.6,635.2,618.4z"/>
	<path class="st6" d="M637.1,619.3c0.3,0.2,0.6,0.3,1,0.5C637.7,619.6,637.4,619.4,637.1,619.3z"/>
	<path class="st6" d="M638.9,620.2c0.3,0.1,0.5,0.3,0.8,0.5C639.4,620.5,639.1,620.3,638.9,620.2z"/>
	<path class="st6" d="M645.9,624.7c-0.1-0.1-0.2-0.2-0.3-0.2C645.7,624.5,645.8,624.6,645.9,624.7z"/>
	<path class="st6" d="M647.2,625.6C647.2,625.6,647.2,625.6,647.2,625.6C647.2,625.6,647.2,625.6,647.2,625.6
		C647.2,625.6,647.2,625.6,647.2,625.6z"/>
	<path class="st6" d="M641.3,621.6c-0.2-0.1-0.4-0.3-0.7-0.4C640.9,621.3,641.1,621.5,641.3,621.6z"/>
	<path class="st6" d="M642.9,622.6c-0.2-0.1-0.4-0.2-0.5-0.4C642.5,622.3,642.7,622.5,642.9,622.6z"/>
	<path class="st6" d="M644.4,623.6c-0.1-0.1-0.3-0.2-0.4-0.3C644.1,623.4,644.3,623.5,644.4,623.6z"/>
	<path class="st6" d="M633.4,617.6c0.4,0.2,0.8,0.4,1.2,0.5C634.2,617.9,633.8,617.7,633.4,617.6z"/>
	<path class="st6" d="M621.5,613.9c0.6,0.1,1.2,0.3,1.8,0.4C622.7,614.1,622.1,614,621.5,613.9z"/>
	<path class="st6" d="M625.6,614.9c0.6,0.2,1.1,0.3,1.7,0.5C626.7,615.2,626.1,615,625.6,614.9z"/>
	<path class="st6" d="M630.4,639.8c-8.4-2.4-13.3-6.1-9-25.7c0-0.1,0-0.1,0.1-0.2c-1.2-0.2-2.4-0.5-3.6-0.6
		c-0.2,0.6-0.3,1.2-0.5,1.9c-4.2,19.6,0.7,23.3,9,25.7c3.7,1.1,7.3,1.4,10.6-0.1C634.9,640.8,632.7,640.5,630.4,639.8z"/>
	<path class="st6" d="M623.6,614.3c0.6,0.1,1.2,0.3,1.7,0.4C624.7,614.6,624.1,614.5,623.6,614.3z"/>
	<path class="st6" d="M631.5,616.8c0.5,0.2,0.9,0.4,1.4,0.5C632.4,617.2,631.9,617,631.5,616.8z"/>
	<path class="st6" d="M627.6,615.4c0.5,0.2,1.1,0.3,1.6,0.5C628.6,615.8,628.1,615.6,627.6,615.4z"/>
	<path class="st6" d="M629.5,616.1c0.5,0.2,1,0.4,1.5,0.5C630.5,616.5,630,616.3,629.5,616.1z"/>
</g>
<path class="st5" d="M656.9,635.2c-0.5,0.2-1,0.4-1.6,0.6c-18.4,8-18.6,14.1-15.7,22.3c2.9,8.2,8.6,13.7,26.2,7.5
	c0.8-0.3,1.5-0.6,2.3-0.9C667.7,653.7,663.6,643.6,656.9,635.2z"/>
<g>
	<path class="st6" d="M665.4,650.5c-0.1-0.3-0.2-0.6-0.3-0.8C665.2,649.9,665.3,650.2,665.4,650.5z"/>
	<path class="st6" d="M666.6,654.2c-0.1-0.3-0.1-0.5-0.2-0.8C666.4,653.7,666.5,653.9,666.6,654.2z"/>
	<path class="st6" d="M666,652.3c-0.1-0.3-0.2-0.5-0.3-0.8C665.9,651.8,666,652.1,666,652.3z"/>
	<path class="st6" d="M664.7,648.6c-0.1-0.3-0.2-0.6-0.4-0.9C664.5,648.1,664.6,648.4,664.7,648.6z"/>
	<path class="st6" d="M667,656.1c-0.1-0.3-0.1-0.5-0.2-0.8C666.9,655.6,667,655.8,667,656.1z"/>
	<path class="st6" d="M668.1,663.6C668.1,663.6,668.1,663.6,668.1,663.6c0-0.1,0-0.2,0-0.4C668.1,663.3,668.1,663.4,668.1,663.6z"/>
	<path class="st6" d="M663.2,645.1c-0.1-0.3-0.3-0.6-0.5-0.9C662.9,644.5,663,644.8,663.2,645.1z"/>
	<path class="st6" d="M662.3,643.3c-0.2-0.3-0.3-0.6-0.5-0.9C661.9,642.7,662.1,643,662.3,643.3z"/>
	<path class="st6" d="M664,646.8c-0.1-0.3-0.3-0.6-0.4-0.9C663.7,646.3,663.9,646.6,664,646.8z"/>
	<path class="st6" d="M667.4,658c0-0.3-0.1-0.5-0.2-0.8C667.3,657.5,667.4,657.8,667.4,658z"/>
	<path class="st6" d="M659.7,639c0.2,0.3,0.5,0.7,0.7,1C660.1,639.6,659.9,639.3,659.7,639z"/>
	<path class="st6" d="M657.2,635.5c0.3,0.4,0.6,0.8,0.9,1.2C657.8,636.3,657.5,635.9,657.2,635.5z"/>
	<path class="st6" d="M639.7,658.1c-2.9-8.2-2.8-14.3,15.7-22.3c0.5-0.2,1-0.4,1.6-0.6c0,0,0,0-0.1-0.1c-1.8,0.3-3.7,0.9-5.5,1.7
		c-18.4,8-18.6,14.1-15.7,22.3c2.7,7.7,7.9,13,22.8,8.6C646.6,670.1,642.2,665.1,639.7,658.1z"/>
	<path class="st6" d="M658.5,637.2c0.3,0.4,0.5,0.7,0.8,1.1C659,638,658.7,637.6,658.5,637.2z"/>
	<path class="st6" d="M667.8,660c0-0.3-0.1-0.5-0.1-0.8C667.7,659.5,667.7,659.7,667.8,660z"/>
	<path class="st6" d="M668,662c0-0.3-0.1-0.5-0.1-0.8C667.9,661.5,668,661.7,668,662z"/>
	<path class="st6" d="M660.8,640.7c0.2,0.3,0.4,0.6,0.6,1C661.2,641.3,661,641,660.8,640.7z"/>
</g>
<path class="st5" d="M664.5,682.8c-15.4-12.9-20.9-10.3-27-4c-6,6.3-8.4,13.8,5.1,26.8c1.3,1.2,2.6,2.3,4,3.2
	c8.7-6.6,15.3-15.3,18.8-25.2C665.1,683.3,664.8,683.1,664.5,682.8z"/>
</svg>
