<?xml version="1.0" encoding="utf-8"?>
<!-- Generator: Adobe Illustrator 23.0.1, SVG Export Plug-In . SVG Version: 6.00 Build 0)  -->
<svg version="1.1" id="Layer_1" xmlns="http://www.w3.org/2000/svg" xmlns:xlink="http://www.w3.org/1999/xlink" x="0px" y="0px"
	 viewBox="0 0 1080 1080" style="enable-background:new 0 0 1080 1080;" xml:space="preserve">
<style type="text/css">
	.st0{fill:#5E17A6;}
	.st1{fill:#D1D3D4;}
	.st2{fill:#E6E7E8;}
	.st3{fill:#FA650A;}
</style>
<path class="st0" d="M599.84,665.55c-14.36,26.62-13.53,54.92,1.83,63.2c15.37,8.29,39.46-6.57,53.82-33.19
	c14.36-26.62,13.31-65.5,13.31-65.5s-27.89-0.67-35.14,2.14C621.59,636.87,608.81,648.92,599.84,665.55z"/>
<path class="st1" d="M637.09,630.76c-2.49,10.25-7.09,32.27-2.15,37.22c2.67,2.67,6.79,4.25,10.91,4.72
	c-1.46-0.72-2.77-1.62-3.85-2.7c-5.55-5.55,0.92-32.58,2.94-40.38C641.83,629.89,639.06,630.25,637.09,630.76z"/>
<path class="st2" d="M644.94,629.62c-2.01,7.8-8.49,34.83-2.94,40.38c6.37,6.37,20.92,6.49,24.31,0.36
	c1.05-4.43,1.86-8.81,2.48-12.96c1.03-9.57,1.7-21.82,2.01-28.33C670.8,629.07,655.79,628.71,644.94,629.62z"/>
<path class="st3" d="M620.04,677.97c-9.89-3.1-20.63,0.77-28.53,9.15c-4.51,18.91-1.05,35.6,10.16,41.64
	c9.86,5.32,23.31,1.1,35.47-9.63C642.11,700.74,634.68,682.56,620.04,677.97z"/>
</svg>
