<?xml version="1.0" encoding="utf-8"?>
<!-- Generator: Adobe Illustrator 23.0.1, SVG Export Plug-In . SVG Version: 6.00 Build 0)  -->
<svg version="1.1" id="Layer_1" xmlns="http://www.w3.org/2000/svg" xmlns:xlink="http://www.w3.org/1999/xlink" x="0px" y="0px"
	 viewBox="0 0 1080 1080" style="enable-background:new 0 0 1080 1080;" xml:space="preserve">
<style type="text/css">
	.st0{fill:#2ED67A;}
	.st1{fill:#24AA5D;}
</style>
<path class="st0" d="M546.5,754.1c0,0,14.8,50.9-6.5,68.2c-21.3,17.3-49.7,6-61,11s-41.7,44.3-68.7,44.3s-39.7-23-33-29.3
	c6.7-6.3,12,19,29.7,14.3c17.7-4.7,25-49,38-52.7s38.7,0,40.7-7.7c2-7.7-12-61-14-68.4C463.6,703.8,540,708.2,546.5,754.1z"/>
<path class="st0" d="M808.7,788c-3,5.7,18.3,8.2,6.7,25.3c-6.3,9.3-31.5,4.9-48-13.3c-18-19.9-16.3-38.7-55.7-25.3
	c-21.1,7.1-26.2-21.5-23.9-45.3c-18.7,13.7-39.6,24.6-61.9,32.3c0.9,15.5,7.3,34.2,14.4,44.7c11.6,17,52.1-1.3,76.4-4.7
	c24.3-3.3,27.3,22,70.3,32.3c43,10.3,45.1-13.3,45.3-36C832.4,787,816.6,773.1,808.7,788z"/>
<g>
	<path class="st1" d="M817.2,810.2c0.6-0.5,1.1-1.1,1.5-1.7c11.2-16.4-8-19.4-6.9-24.7c-1.1,1-2.2,2.4-3.2,4.2
		C805.9,793.3,824.3,795.9,817.2,810.2z"/>
	<path class="st1" d="M790.4,829.1c-43-10.3-46-35.7-70.3-32.3c-24.3,3.3-64.8,21.7-76.4,4.7c-6.6-9.7-12.5-26.5-14.1-41.2
		c-1.2,0.4-2.5,0.9-3.7,1.3c0.9,15.5,7.3,34.2,14.4,44.7c11.6,17,52.1-1.3,76.4-4.7c24.3-3.3,27.3,22,70.3,32.3
		c24.7,5.9,35.9,0.7,41-9.2C821.8,831.4,810.6,834,790.4,829.1z"/>
</g>
<path class="st1" d="M480.3,730.2c-1.3-3.4-4.8-5.4-6.1-8.7c-2.8,3.1-3.9,7.3-2.5,12.4c2,7.4,16,60.7,14,68.4s-27.7,4-40.7,7.7
	c-13,3.7-20.3,48-38,52.7c-1,0.3-2,0.4-2.9,0.5c3.3,2,7.2,2.9,12,1.7c17.7-4.7,25-49,38-52.7c13-3.7,38.7,0,40.7-7.7
	C496.8,796.8,480.9,731.9,480.3,730.2z"/>
</svg>
