<?xml version="1.0" encoding="utf-8"?>
<!-- Generator: Adobe Illustrator 23.0.1, SVG Export Plug-In . SVG Version: 6.00 Build 0)  -->
<svg version="1.1" id="Layer_1" xmlns="http://www.w3.org/2000/svg" xmlns:xlink="http://www.w3.org/1999/xlink" x="0px" y="0px"
	 viewBox="0 0 1080 1080" style="enable-background:new 0 0 1080 1080;" xml:space="preserve">
<style type="text/css">
	.st0{fill:#2ED67A;}
</style>
<path class="st0" d="M546.5,754.1c0,0,14.83,50.9-6.5,68.24c-21.33,17.33-49.67,6-61,11s-41.67,44.33-68.67,44.33
	s-39.67-23-33-29.33c6.67-6.33,12,19,29.67,14.33c17.67-4.67,25-49,38-52.67s38.67,0,40.67-7.67c2-7.67-12.01-60.96-14-68.35
	C463.55,703.85,540,708.23,546.5,754.1z"/>
<path class="st0" d="M808.67,788c-3,5.67,18.33,8.23,6.67,25.33c-6.34,9.29-31.52,4.9-48-13.33c-18-19.92-16.33-38.67-55.67-25.33
	c-21.06,7.14-26.21-21.54-23.94-45.33c-18.74,13.67-39.59,24.58-61.87,32.27c0.92,15.48,7.25,34.23,14.42,44.73
	c11.61,17,52.05-1.33,76.39-4.67C741,798.33,744,823.67,787,834c43,10.33,45.14-13.27,45.33-36C832.43,787,816.57,773.07,808.67,788
	z"/>
</svg>
