<?xml version="1.0" encoding="utf-8"?>
<!-- Generator: Adobe Illustrator 23.0.1, SVG Export Plug-In . SVG Version: 6.00 Build 0)  -->
<svg version="1.1" id="Layer_1" xmlns="http://www.w3.org/2000/svg" xmlns:xlink="http://www.w3.org/1999/xlink" x="0px" y="0px"
	 viewBox="0 0 1080 1080" style="enable-background:new 0 0 1080 1080;" xml:space="preserve">
<style type="text/css">
	.st0{fill:#32B76B;}
</style>
<path class="st0" d="M578.9,811.5c-11.4,3-27.8,3.5-41.7-4c-8.1-8.4-23.8-23.2-9.2-58.5c12-29.1-60.5-46.1-39.5,1.5
	c11.2,25.4-1.5,50.5-4.4,54.6c-6.5,9.1-23.9,11.7-30.6,11.4c-8.9-0.4,7,31,48.8,4.5c2.6,1.6,6,19.5,7.7,23
	c12.2,25,33.5,18.1,33.5,8.5c0-10-9-21.5-16.5-32.5c2.2-1.2,7.2,2.4,8.8,1C563.5,841.5,593.2,807.8,578.9,811.5z"/>
<path class="st0" d="M394.5,729.7c-9.9-11.1-12.4-7.8-15.5-24.7c-1.8-9.8-2.4-13.3,6.1-31.1c18.3-38.2-61-61.6-41.5-3.5
	c2.4,7.3,8.3,16.7,2.3,35.5c-1.8,5.8-12.9,29-22.9,37.6c-16.5,14-39.5,9.5-36.5,17.5c2.5,6.6,43,9.4,62.2-6.3
	c3.9,21.2,22.4,48.4,34.3,40.8c9.5-6.1,2.6-32.3-2.7-48.5c1.7-0.6,3.3-1.3,4.8-2.1c16.4,11.4,46.5,23,47.9,5.1
	C432.9,750,407.4,739.7,394.5,729.7z"/>
<path class="st0" d="M718,788.3c-13.4,2.6-34.1,3.8-38.2-2.3c-7.4-11-0.9-26.4,5.6-45c10.5-29.7-45.5-27.7-43.8,4
	c0.4,7.7,3.1,11.1,7.3,39c2.9,19.3-14.9,29.5-31,30c-16.1,0.5-3.3,21,28.6,7.5c2.9-1.2,17.7-13.3,20-14.5c7.8,3.7,4.9,7,29.4,16.5
	c30.8,11.9,50-8.4,30-11.5c-26-4-28.3-9.3-33.5-11c14.9-1.8,50-1.5,54-4.2C753.5,792.2,743,783.5,718,788.3z"/>
</svg>
