<?xml version="1.0" encoding="utf-8"?>
<!-- Generator: Adobe Illustrator 23.0.1, SVG Export Plug-In . SVG Version: 6.00 Build 0)  -->
<svg version="1.1" id="Layer_1" xmlns="http://www.w3.org/2000/svg" xmlns:xlink="http://www.w3.org/1999/xlink" x="0px" y="0px"
	 viewBox="0 0 1080 1080" style="enable-background:new 0 0 1080 1080;" xml:space="preserve">
<style type="text/css">
	.st0{fill:#168944;}
	.st1{fill:#13AA54;}
</style>
<path class="st0" d="M578.3,773.4c-20.3,2.4-41.3,2.2-62.6-0.8c-1-0.1-2-0.3-2.9-0.5c12.9,13.7,33.1,24.7,35.3,18.2
	c3-8.7,3-5.6,3-5.6s14.3,11.7,17.3,2.6v-5.6c0,0,12.3,3,10.3-6.5C578.6,774.5,578.5,773.9,578.3,773.4z"/>
<path class="st1" d="M342.7,656c0,0-12.7,112.7-5.7,131.2c7,18.5,42,41,45,32.4s3-5.6,3-5.6s14.3,11.7,17.3,2.6v-5.6
	c0,0,12.3,3,10.3-6.5s-13.3-10.7-13-17.2c0.3-6.6,0.4-27.4,0.7-30.8C408.3,640.4,349.3,579.5,342.7,656z"/>
<g>
	<path class="st0" d="M399.7,782.1c0,0.5,0,1,0.1,1.4c0.2-8.6,0.3-24.2,0.5-27.2c0.6-8.2,0.8-16.2,0.7-23.9
		c-0.1,6.1-0.3,12.4-0.7,18.8C400.1,754.8,400,775.6,399.7,782.1z"/>
	<path class="st0" d="M412.4,803.5c-2,4.3-10.1,2.3-10.1,2.3v5.1c0,0,12.3,3,10.3-6.5C412.6,804.1,412.5,803.8,412.4,803.5z"/>
	<path class="st0" d="M385,808.9c0,0,0-3-3,5.6s-38-13.8-45-32.4c-1.4-3.7-2-11.2-2.1-20.8c-0.1,12,0.5,21.5,2.1,25.9
		c7,18.5,42,41,45,32.4c3-8.7,3-5.6,3-5.6s14.3,11.7,17.3,2.6v-5.1C399.3,820.6,385,808.9,385,808.9z"/>
</g>
<path class="st1" d="M477.7,718c0,0-9.1,71.9-2.1,86.1S521,835.7,524,829s3-4.3,3-4.3s16.5,7,19.5,0s0-11,0-11s10.4,1.3,8.4-6
	c-2-7.3-15.3-5.6-14.9-10.7s-0.3-25,0-27.7C546.5,703.1,481,684,477.7,718z"/>
<g>
	<path class="st0" d="M554.9,807.7c-0.3-1.3-1-2.3-1.9-3.1c-1.2,4-8.5,3.1-8.5,3.1s3,4,0,11s-19.5,0-19.5,0s0-2.3-3,4.3
		c-2.9,6.5-39.8-9.9-48-24c0.4,2.1,0.9,3.8,1.5,5.1c7,14.3,45.5,31.5,48.5,24.9c3-6.7,3-4.3,3-4.3s16.5,7,19.5,0s0-11,0-11
		S556.9,815,554.9,807.7z"/>
</g>
<g>
	<path class="st0" d="M689.7,779.9c0,0.4,0,0.7,0.2,1c0.5-9.8,1.7-35.8,1.8-38.1c0.1-1.6,0.1-3.1,0-4.6c0,0.2,0,0.4,0,0.6
		C691.6,741.4,690,774.9,689.7,779.9z"/>
	<path class="st0" d="M707.1,797c-1.5,3.3-7.2,3.3-7.7,3.3c0.1,0.1-0.1,1-2.4,6.3c-3,7-16-0.3-16-0.3s0.2-1.1-2.8,5.6
		c-3,6.7-39.9-6.5-46.9-20.8c-2.2-4.5-3.1-11.7-3.2-19.3c-0.1,9.1,0.6,18.1,3.2,23.4c7,14.3,43.9,27.5,46.9,20.8s2.8-5.6,2.8-5.6
		s13,7.3,16,0.3c2.3-5.3,2.4-6.2,2.4-6.3c0.7,0,9.8,0,7.9-7C707.2,797.2,707.2,797.1,707.1,797z"/>
</g>
<path class="st1" d="M689.7,784c0.3-5,1.9-38.5,2-41.2c0.2-5.4-0.2-10-1-13.8c-18.8,13.9-39.7,25-62.1,32.8
	c-0.8,12.1-0.8,26.1,2.7,33.4c7,14.3,43.9,27.5,46.9,20.8s2.8-5.6,2.8-5.6s13,7.3,16,0.3c2.3-5.3,2.4-6.2,2.4-6.3c0.7,0,9.8,0,7.9-7
	C705.3,790,689.3,789,689.7,784z"/>
</svg>
