<?xml version="1.0" encoding="utf-8"?>
<!-- Generator: Adobe Illustrator 23.0.1, SVG Export Plug-In . SVG Version: 6.00 Build 0)  -->
<svg version="1.1" id="Layer_1" xmlns="http://www.w3.org/2000/svg" xmlns:xlink="http://www.w3.org/1999/xlink" x="0px" y="0px"
	 viewBox="0 0 1080 1080" style="enable-background:new 0 0 1080 1080;" xml:space="preserve">
<style type="text/css">
	.st0{fill:#327F51;}
	.st1{fill:#32B76B;}
	.st2{fill:#249351;}
</style>
<path class="st0" d="M551.4,775c0,0.5,0,1,0.2,1.6c2.5,6.6,43,9.4,62.2-6.3c3.9,21.2,40.1,31.5,52,23.8c9.5-6.1-15.1-15.4-20.4-31.5
	c1.7-0.6,3.3-1.3,4.8-2.1c16.4,11.4,46.5,23,47.9,5.1c0,0-22.6-9.1-36-18.6C628.9,764.8,591.1,774.8,551.4,775z"/>
<path class="st1" d="M578.9,811.5c-11.4,3-27.8,3.5-41.7-4c-8.1-8.4-23.8-23.2-9.2-58.5c12-29.1-60.5-46.1-39.5,1.5
	c11.2,25.4-1.5,50.5-4.4,54.6c-6.5,9.1-23.9,11.7-30.6,11.4c-8.9-0.4,7,31,48.8,4.5c2.6,1.6,6,19.5,7.7,23
	c12.2,25,33.5,18.1,33.5,8.5c0-10-9-21.5-16.5-32.5c2.2-1.2,7.2,2.4,8.8,1C563.5,841.5,593.2,807.8,578.9,811.5z"/>
<g>
	<path class="st2" d="M524.2,744c-11.9,28.9-3.6,44.1,4.3,53.2c-6.2-9.5-10.4-24-0.5-48.2c3.1-7.5,0.6-14.1-4.5-19.1
		C525.8,734,526.3,738.8,524.2,744z"/>
	<path class="st2" d="M578.9,811.5c-0.9,0.2-1.8,0.4-2.8,0.6c-6.9,7.3-25.9,17.3-44.1,3.8c-1.6,1.4-6.6-2.2-8.8-1
		c7.5,11,16.5,22.5,16.5,32.5c0,8.1-15.1,14.2-27.1,1.1c12.4,19.4,30.9,12.8,30.9,3.9c0-10-9-21.5-16.5-32.5c2.2-1.2,7.2,2.4,8.8,1
		C563.5,841.5,593.2,807.8,578.9,811.5z"/>
	<path class="st2" d="M498.5,816c-24.3,15.4-39.8,11.2-46.8,5.1c3.1,7.4,21,18.9,51.2,0.4C501.9,818.6,499.3,816.5,498.5,816z"/>
</g>
<path class="st1" d="M394.5,776.5c-9.9-11.1-12.4-7.8-15.5-24.7c-1.8-9.8-7.1-69.1,1.4-86.9c18.3-38.2-61-61.6-41.5-3.5
	c2.4,7.3,12.9,72.4,7,91.3c-1.8,5.8-12.9,29-22.9,37.6c-16.5,14-39.5,9.5-36.5,17.5c2.5,6.6,43,9.4,62.2-6.3
	c3.9,21.2,22.4,48.4,34.3,40.8c9.5-6.1,2.6-32.3-2.7-48.5c1.7-0.6,3.3-1.3,4.8-2.1c16.4,11.4,46.5,23,47.9,5.1
	C432.9,796.8,407.4,786.5,394.5,776.5z"/>
<g>
	<path class="st2" d="M343.7,798.5c-15.6,12.7-45.1,13.3-57,9.5c3.2,6,42.9,9.9,62-6.5C348.1,799.6,347.5,799.1,343.7,798.5z"/>
	<path class="st2" d="M375.5,661.9c-8.5,17.8-3.2,77-1.4,86.9c3.1,16.9,5.6,13.6,15.5,24.7c3.1,2.4,6.9,4.9,11,7.1
		c-2.2-1.4-4.2-2.8-6-4.1c-9.9-11.1-12.4-7.8-15.5-24.7c-1.8-9.8-7.1-69.1,1.4-86.9c7.6-16-1.7-29.3-13.8-35.2
		C376.1,636.5,382,648.3,375.5,661.9z"/>
	<path class="st2" d="M427.8,794.7c-2,14.4-23.9,7.9-40.3-1.3c16.8,10.8,44.1,20.5,45.4,3.4C432.9,796.8,430.9,796,427.8,794.7z"/>
	<path class="st2" d="M384.8,791.8c-1.7-1-3.3-2.1-4.8-3.1c-1.5,0.8-3.1,1.5-4.8,2.1c5.4,16.2,12.3,42.3,2.7,48.5
		c-2.6,1.6-5.4,1.7-8.4,0.5c4.7,3.7,9.4,5,13.4,2.5c9.5-6.1,2.6-32.3-2.7-48.5C381.9,793.3,383.4,792.6,384.8,791.8z"/>
</g>
<path class="st1" d="M718,788.3c-13.4,2.6-34.1,3.8-38.2-2.3c-7.4-11-0.9-26.4,5.6-45c10.5-29.7-45.5-27.7-43.8,4
	c0.4,7.7,3.1,11.1,7.3,39c2.9,19.3-14.9,29.5-31,30c-16.1,0.5-3.3,21,28.6,7.5c2.9-1.2,17.7-13.3,20-14.5c7.8,3.7,4.9,7,29.4,16.5
	c30.8,11.9,50-8.4,30-11.5c-26-4-28.3-9.3-33.5-11c14.9-1.8,50-1.5,54-4.2C753.5,792.2,743,783.5,718,788.3z"/>
<g>
	<path class="st2" d="M683.9,735.7c-6.1,17.3-12.1,31.8-7,42.6c-1.7-10.1,3.4-22.8,8.6-37.4c2-5.7,1.6-10.2-0.4-13.5
		C685.3,729.9,685,732.6,683.9,735.7z"/>
	<path class="st2" d="M732.2,814.2c-2.6,5.9-17.7,11.8-37.8,4.1c-24.5-9.5-21.6-12.8-29.4-16.5c-2.3,1.2-17.1,13.3-20,14.5
		c-17.4,7.4-29.1,4.6-33.5,0.5c-2.8,5.2,10.4,15.2,35.1,4.8c2.9-1.2,17.7-13.3,20-14.5c7.8,3.7,4.9,7,29.4,16.5
		C722.5,833.8,740.4,820.1,732.2,814.2z"/>
	<path class="st2" d="M746.4,790.2c-0.4,0.5,0.2,1.1,0.5,1.8c1.9,4-40.6,2.2-54.9,4.1c-0.2,0-1.8,0.1-2,0.1c-1.7,0.4-1.4,3,2.5,4.7
		c16.8-1.1,50.6-1.9,54-4.2C749.4,794.9,749.3,792.3,746.4,790.2z"/>
</g>
</svg>
