<?xml version="1.0" encoding="utf-8"?>
<!-- Generator: Adobe Illustrator 23.0.1, SVG Export Plug-In . SVG Version: 6.00 Build 0)  -->
<svg version="1.1" id="Layer_1" xmlns="http://www.w3.org/2000/svg" xmlns:xlink="http://www.w3.org/1999/xlink" x="0px" y="0px"
	 viewBox="0 0 1080 1080" style="enable-background:new 0 0 1080 1080;" xml:space="preserve">
<style type="text/css">
	.st0{fill:#19FDEF;}
	.st1{fill:#219B8C;}
</style>
<path class="st0" d="M314.2,539.4c-3.9,0-13,0.5-33.2,3.9c-31.7,5.3-49,42.7-49.3,53.3c-0.3,10.7,8.7,37.3-9,53.7
	C205,666.7,200,677,204.3,700c4.3,23,22.7,15.3,37.7,17.3s9.7,5.7,18.3,36c8.7,30.3,42,15.3,50.3,7.7c8.3-7.7,19.7-3.3,28,5.3
	c8.3,8.7,19.7,11,37.7,7s11-28.3,17.7-33.3s25.8-27.8,25.8-72.3C419.8,590.3,312.4,618.4,314.2,539.4z M295.2,551.9
	c2.6-1.8,8.6,0.9,10.4,3.5c1.8,2.6,3.6,7.8,0.8,9.2c-6.7,3.3-12.4,0.6-14.2-2C290.4,560,292.7,553.8,295.2,551.9z M296.5,688.3
	c5.1,0.2,14.9,0,12.3,8.7c-1.1,3.6-8.1,3.2-13.2,3s-13.4-1-13.2-4.8C282.6,691.4,291.4,688,296.5,688.3z M252.7,598.4
	c-3.5-9.6,3.1-17.6,13.6-21.4s19.5,0.4,23,10c3.5,9.6,0.5,21.5-10,25.3S256.2,608,252.7,598.4z M296.2,753.7
	c-10.9,2.3-24.3-4.9-27.8-14.5s2.2-20.5,12.7-24.3s16.1,4.8,23.1,12.2C312.2,735.3,313.7,750,296.2,753.7z M312.1,589.9
	c-3.6,2.5-9.7-1.8-12.3-5.4c-2.5-3.6-1.7-8.6,2-11.1c3.6-2.5,7.8-0.1,10.3,3.5C314.6,580.6,315.7,587.4,312.1,589.9z M315.4,709
	c-1.8-2.6-1.2-6.2,1.4-8c2.6-1.8,9.1-4,10.9-1.4c1.8,2.6,3.1,10,0.5,11.8C325.7,713.2,317.3,711.6,315.4,709z M337.6,737.9
	c-3.1,2.2-10.7,0.9-12.9-2.2c-2.2-3.1-1.7-8.5,1.4-10.7s11,0.1,13.2,3.2C341.5,731.3,340.8,735.7,337.6,737.9z M350.6,714.4
	c-3.1,0.6-7.9-3.3-8.5-6.4c-0.6-3.1,0.6-9,3.7-9.6c3.1-0.6,9.8,3.3,10.5,6.4S353.7,713.8,350.6,714.4z"/>
<path class="st1" d="M266.3,577c10.5-3.8,19.5,0.4,23,10c1.9,5.1,1.9,10.9-0.1,15.8c4.8-5.4,5.8-13.7,3.2-20.8
	c-3.5-9.6-12.5-13.8-23-10c-6.7,2.4-11.8,6.6-13.7,11.8C258.3,580.9,262,578.6,266.3,577z"/>
<path class="st1" d="M299.3,748.7c-10.9,2.3-24.3-4.9-27.8-14.5c-1.6-4.3-1.3-8.9,0.5-13c-4.2,5-5.8,11.8-3.6,18
	c3.5,9.6,16.9,16.8,27.8,14.5c7.7-1.6,11.8-5.4,13.1-9.8C307.1,746,303.9,747.7,299.3,748.7z"/>
<path class="st1" d="M296.5,688.3c-5.1-0.2-13.9,3.1-14.1,6.9c0,0.4,0.1,0.7,0.2,1c3.1-1.8,7.6-3.1,10.8-2.9
	c4.5,0.2,12.8,0,12.7,6.1c1.3-0.5,2.3-1.2,2.7-2.4C311.4,688.3,301.6,688.5,296.5,688.3z"/>
<path class="st1" d="M339.3,728.2c-2.2-3.1-10.1-5.4-13.2-3.2c-0.7,0.5-1.2,1.1-1.6,1.8c3.7-0.9,9.9,1.1,11.8,3.9
	c1.7,2.4,1.6,5.6,0,7.9c0.5-0.2,1-0.4,1.4-0.7C340.8,735.7,341.5,731.3,339.3,728.2z"/>
<path class="st1" d="M356.3,704.8c-0.6-3.1-7.4-7-10.5-6.4c-1.4,0.3-2.4,1.7-3.1,3.4c3.4,0.6,8.2,3.8,8.7,6.4
	c0.3,1.7-0.5,4.3-1.8,6.3c0.3,0,0.7,0,1,0C353.7,713.8,356.9,707.9,356.3,704.8z"/>
<path class="st1" d="M327.8,699.7c-1.8-2.6-8.3-0.4-10.9,1.4c-1.6,1.1-2.4,2.8-2.4,4.6c2.9-1.7,8.6-3.3,10.3-1
	c1.1,1.5,1.9,4.7,2,7.4c0.7-0.1,1.2-0.3,1.6-0.6C330.8,709.6,329.6,702.3,327.8,699.7z"/>
<path class="st1" d="M305.6,555.4c-1.8-2.6-7.8-5.3-10.4-3.5c-1.1,0.8-2.1,2.3-2.8,4c0.1-0.1,0.2-0.2,0.3-0.2
	c2.6-1.8,8.6,0.9,10.4,3.5c1.1,1.5,2.1,3.9,2.2,5.9c0.3-0.1,0.7-0.3,1-0.5C309.2,563.2,307.5,558,305.6,555.4z"/>
<path class="st1" d="M312.1,576.9c-2.5-3.6-6.7-6.1-10.3-3.5c-1.5,1.1-2.5,2.5-3,4.2c0.2-0.1,0.4-0.3,0.5-0.4
	c3.6-2.5,7.8-0.1,10.3,3.5c1.7,2.5,2.8,6.4,2.1,9.5c0.1-0.1,0.2-0.1,0.4-0.2C315.7,587.4,314.6,580.6,312.1,576.9z"/>
</svg>
