<?xml version="1.0" encoding="utf-8"?>
<!-- Generator: Adobe Illustrator 23.0.1, SVG Export Plug-In . SVG Version: 6.00 Build 0)  -->
<svg version="1.1" id="Layer_1" xmlns="http://www.w3.org/2000/svg" xmlns:xlink="http://www.w3.org/1999/xlink" x="0px" y="0px"
	 viewBox="0 0 1080 1080" style="enable-background:new 0 0 1080 1080;" xml:space="preserve">
<style type="text/css">
	.st0{fill:#19FDEF;}
	.st1{fill:#1ED6C4;}
</style>
<path class="st0" d="M312.16,539.41c-3.94-0.04-13.02,0.53-33.16,3.92c-31.67,5.33-49,42.67-49.33,53.33
	c-0.33,10.67,8.67,37.33-9,53.67C203,666.67,198,677,202.33,700c4.33,23,22.67,15.33,37.67,17.33s9.67,5.67,18.33,36
	c8.67,30.33,42,15.33,50.33,7.67c8.33-7.67,19.67-3.33,28,5.33c8.33,8.67,19.67,11,37.67,7S385.33,745,392,740
	s25.79-27.8,25.79-72.31C417.79,590.3,310.38,618.4,312.16,539.41z M293.24,551.95c2.59-1.81,8.59,0.87,10.4,3.46
	c1.81,2.59,3.59,7.81,0.76,9.21c-6.75,3.33-12.41,0.59-14.22-2C288.37,560.03,290.66,553.76,293.24,551.95z M294.48,688.29
	c5.1,0.24,14.95-0.01,12.31,8.71c-1.1,3.65-8.09,3.24-13.18,3s-13.36-1.01-13.18-4.82C280.61,691.38,289.38,688.05,294.48,688.29z
	 M250.72,598.43c-3.5-9.6,3.1-17.6,13.61-21.43s19.52,0.4,23.02,10c3.5,9.6,0.49,21.5-10.02,25.33S254.22,608.03,250.72,598.43z
	 M294.2,753.67c-10.95,2.3-24.33-4.95-27.82-14.55s2.19-20.49,12.69-24.31s16.06,4.83,23.14,12.2
	C310.23,735.33,311.67,750,294.2,753.67z M310.09,589.95c-3.62,2.54-9.71-1.77-12.25-5.39c-2.54-3.62-1.66-8.61,1.96-11.15
	c3.62-2.54,7.75-0.08,10.29,3.54C312.62,580.57,313.71,587.41,310.09,589.95z M313.44,709c-1.81-2.59-1.18-6.15,1.4-7.96
	c2.59-1.81,9.1-3.96,10.92-1.37c1.81,2.59,3.08,9.96,0.49,11.77C323.67,713.25,315.26,711.58,313.44,709z M335.63,737.86
	c-3.13,2.19-10.73,0.94-12.92-2.19c-2.19-3.13-1.74-8.47,1.39-10.67s11.04,0.08,13.23,3.21
	C339.52,731.35,338.76,735.66,335.63,737.86z M348.62,714.38c-3.1,0.62-7.92-3.33-8.53-6.42c-0.62-3.1,0.62-8.99,3.72-9.61
	c3.1-0.62,9.84,3.33,10.45,6.43S351.72,713.76,348.62,714.38z"/>
<path class="st1" d="M264.33,577c10.51-3.83,19.52,0.4,23.02,10c1.87,5.12,1.86,10.89-0.13,15.75c4.84-5.42,5.79-13.7,3.23-20.75
	c-3.5-9.6-12.51-13.83-23.02-10c-6.7,2.44-11.81,6.59-13.73,11.76C256.28,580.91,259.96,578.59,264.33,577z"/>
<path class="st1" d="M297.3,748.67c-10.95,2.3-24.33-4.95-27.82-14.55c-1.57-4.31-1.28-8.88,0.46-12.95
	c-4.23,5.03-5.82,11.75-3.56,17.95c3.5,9.6,16.88,16.85,27.82,14.55c7.74-1.62,11.76-5.41,13.15-9.85
	C305.15,745.98,301.88,747.7,297.3,748.67z"/>
<path class="st1" d="M294.48,688.29c-5.1-0.24-13.87,3.09-14.05,6.9c-0.02,0.37,0.07,0.7,0.2,1.02c3.06-1.85,7.61-3.06,10.76-2.91
	c4.53,0.21,12.8,0.04,12.75,6.12c1.33-0.47,2.31-1.23,2.66-2.41C309.43,688.27,299.58,688.53,294.48,688.29z"/>
<path class="st1" d="M337.33,728.21c-2.19-3.13-10.1-5.41-13.23-3.21c-0.67,0.47-1.21,1.09-1.64,1.8c3.65-0.94,9.87,1.13,11.77,3.85
	c1.7,2.42,1.62,5.55,0.05,7.86c0.51-0.17,0.96-0.39,1.35-0.66C338.76,735.66,339.52,731.35,337.33,728.21z"/>
<path class="st1" d="M354.26,704.77c-0.62-3.1-7.36-7.04-10.45-6.43c-1.41,0.28-2.44,1.67-3.07,3.38c3.37,0.61,8.16,3.79,8.68,6.38
	c0.34,1.71-0.47,4.26-1.78,6.32c0.34,0.03,0.68,0.02,0.99-0.04C351.72,713.76,354.88,707.87,354.26,704.77z"/>
<path class="st1" d="M325.76,699.67c-1.81-2.59-8.33-0.44-10.92,1.37c-1.56,1.09-2.4,2.82-2.43,4.58c2.9-1.69,8.58-3.34,10.25-0.95
	c1.06,1.51,1.93,4.66,1.95,7.37c0.66-0.12,1.23-0.31,1.64-0.6C328.84,709.62,327.57,702.25,325.76,699.67z"/>
<path class="st1" d="M303.64,555.4c-1.81-2.59-7.81-5.27-10.4-3.46c-1.07,0.75-2.09,2.27-2.79,3.98c0.1-0.08,0.2-0.17,0.3-0.24
	c2.59-1.81,8.59,0.87,10.4,3.46c1.06,1.51,2.09,3.91,2.22,5.93c0.34-0.14,0.68-0.29,1.03-0.46
	C307.23,563.22,305.45,557.99,303.64,555.4z"/>
<path class="st1" d="M310.09,576.95c-2.54-3.62-6.67-6.08-10.29-3.54c-1.51,1.05-2.53,2.54-3.04,4.16c0.18-0.15,0.35-0.29,0.55-0.43
	c3.62-2.54,7.75-0.08,10.29,3.54c1.72,2.46,2.77,6.39,2.14,9.46c0.12-0.07,0.24-0.12,0.35-0.2
	C313.71,587.41,312.62,580.57,310.09,576.95z"/>
</svg>
