<?xml version="1.0" encoding="utf-8"?>
<!-- Generator: Adobe Illustrator 23.0.1, SVG Export Plug-In . SVG Version: 6.00 Build 0)  -->
<svg version="1.1" id="Layer_1" xmlns="http://www.w3.org/2000/svg" xmlns:xlink="http://www.w3.org/1999/xlink" x="0px" y="0px"
	 viewBox="0 0 1080 1080" style="enable-background:new 0 0 1080 1080;" xml:space="preserve">
<style type="text/css">
	.st0{fill:#D7ABFF;}
	.st1{fill:#AB80D8;}
	.st2{fill:#7D61AA;}
	.st3{fill:#AE8ADD;}
	.st4{fill:#5E17A6;}
	.st5{fill:#3A1368;}
</style>
<path class="st0" d="M312.7,584.3c0,0-33.3-20.3-57.3-2.7c-24,17.7-20.7,70.1-56.7,63c-36-7-41.3-37.2-41.3-37.2
	S148.7,717.6,226,711c76.7-6.5,94-84.3,94-84.3L312.7,584.3z"/>
<path class="st1" d="M220.7,698c-56.6,4.8-61.8-58.7-63.4-90c-0.5,8.2-5.5,109.3,68.7,103c76.7-6.5,94-84.3,94-84.3l-2-11.8
	C311.6,634.1,283.2,692.7,220.7,698z"/>
<path class="st2" d="M159.1,612.5c2.8,8.9,6.5,17.5,10.9,25.7c4.4,8.2,9.7,16,16.4,22.3c3.3,3.1,7.1,5.9,11.1,7.8
	c4.1,1.9,8.5,3,12.9,3c4.4,0,8.9-1,13-2.8c2.1-0.9,4.1-1.9,6-3.1c1-0.6,1.9-1.2,2.9-1.9c1-0.7,1.9-1.3,2.9-2c3.7-2.8,7.2-5.8,10.3-9
	c3.1-3.3,5.9-6.8,8.5-10.5c2.6-3.7,4.8-7.6,7-11.6c2.1-4,4.2-8.2,6.4-12.4c2.2-4.2,4.5-8.5,7.5-12.5c0.7-1,1.6-2,2.4-3
	c0.8-1,1.8-1.9,2.7-2.8c1.9-1.7,3.9-3.4,6.2-4.7c4.5-2.6,9.5-4,14.5-4.6c5-0.5,9.8-0.3,14.6,0.4c-4.8,0.7-9.5,1.4-13.9,2.8
	c-4.4,1.3-8.5,3.3-12,5.9c-0.4,0.3-0.9,0.6-1.3,1l-1.2,1.1l-0.6,0.5l-0.5,0.6l-1.1,1.2c-0.7,0.8-1.3,1.7-2,2.6
	c-0.6,0.9-1.3,1.8-1.8,2.7c-2.3,3.8-4.2,7.9-6.2,12.1c-3.9,8.4-8.2,17.3-14.3,25.1c-3,3.9-6.5,7.5-10.1,10.8
	c-3.7,3.3-7.7,6.2-11.8,8.9l-3.1,1.9c-1,0.6-2.1,1.3-3.2,1.8c-2.2,1.2-4.5,2.2-6.8,3.1c-4.7,1.8-9.9,2.8-15,2.6
	c-5.1-0.2-10.2-1.7-14.6-4c-4.4-2.3-8.3-5.5-11.7-8.9c-6.8-7-11.8-15.2-16-23.7c-4.1-8.5-7.5-17.3-10-26.4L159.1,612.5z"/>
<path class="st2" d="M159.1,612.5c1.4,4.2,3.1,8.3,5,12.3c1.9,4,4,7.9,6.4,11.7c2.4,3.7,5.1,7.3,8.2,10.5c3.1,3.2,6.5,6,10.4,8.1
	c3.9,2.1,8.2,3.4,12.6,3.5c4.4,0.1,8.8-0.9,12.9-2.5c2-0.8,4-1.9,5.9-3c1.9-1.2,3.7-2.4,5.5-3.7c3.5-2.5,5.8-6.2,7.7-10.2
	c1.8-4,3.2-8.2,4.6-12.4c1.4-4.2,2.9-8.5,4.7-12.6c1.8-4.2,4-8.2,6.7-12c2.7-3.7,6-7.1,9.8-9.9c3.8-2.8,8-5,12.3-6.6
	c4.4-1.6,8.9-2.7,13.5-3.3c9.1-1.3,18.4-1,27.4,0c-9.1-0.1-18.2,0.4-27,2.1c-4.4,0.9-8.7,2.1-12.8,3.7c-4.1,1.7-8,3.8-11.4,6.5
	c-3.4,2.7-6.5,5.8-9,9.3c-2.6,3.5-4.7,7.3-6.5,11.3c-1.8,4-3.4,8.1-4.9,12.3c-1.6,4.2-3.1,8.4-5.1,12.5c-1,2.1-2.2,4.1-3.5,5.9
	c-1.4,1.9-3.1,3.6-5,4.9c-1.8,1.4-3.8,2.6-5.8,3.8c-2,1.1-4.1,2.2-6.2,3c-4.3,1.7-9,2.7-13.7,2.5c-4.7-0.2-9.3-1.6-13.4-3.8
	c-4.1-2.2-7.6-5.2-10.7-8.6c-3.1-3.3-5.8-7-8.2-10.8c-2.4-3.8-4.5-7.8-6.3-11.9c-1.9-4.1-3.5-8.2-4.9-12.5L159.1,612.5z"/>
<path class="st2" d="M159.2,612.6c1.6,9.9,4.3,19.6,7.8,29c3.6,9.4,8.1,18.4,14.3,26.2c3.1,3.9,6.6,7.5,10.6,10.4
	c4,3,8.5,5.2,13.2,6.6c2.4,0.7,4.8,1.2,7.3,1.4c2.5,0.2,5,0.3,7.5,0.1c2.5-0.1,5-0.5,7.4-1c2.5-0.5,5-1.1,7.4-1.8
	c9.8-2.7,19-7,26.8-13.2c7.9-6.1,14.1-14.1,19-22.7c5.1-8.6,8.8-18.1,13.9-26.9c2.6-4.4,5.7-8.7,9.9-11.9c2.1-1.5,4.5-2.8,7-3.5
	c2.5-0.8,5.1-1.1,7.7-1c-2.6,0.2-5.1,0.7-7.5,1.6c-2.4,0.9-4.5,2.2-6.4,3.8c-3.8,3.2-6.5,7.5-8.8,11.9c-2.3,4.5-4.3,9.1-6.3,13.7
	c-2,4.6-4.2,9.3-6.6,13.8c-2.5,4.5-5.2,8.9-8.5,12.9c-3.2,4.1-7,7.8-11.1,11c-8.3,6.5-18.1,10.9-28.2,13.5c-2.5,0.7-5.1,1.2-7.6,1.7
	c-2.6,0.5-5.2,0.8-7.9,0.9c-2.7,0.1-5.3,0-8-0.3c-2.6-0.3-5.3-0.9-7.8-1.6c-5.1-1.5-9.8-4.1-14-7.2c-4.2-3.2-7.8-6.9-10.9-11
	c-6.3-8.2-10.7-17.5-14.1-27.1c-3.4-9.6-5.8-19.4-7.1-29.5L159.2,612.6z"/>
<path class="st3" d="M157.8,607.9c2.5,9.2,5.9,18.2,10.1,26.7c4.2,8.5,9.2,16.7,15.6,23.4c3.2,3.3,6.9,6.3,10.9,8.4
	c4,2.1,8.4,3.4,12.8,3.5c4.4,0.1,8.9-0.7,13.1-2.4c2.1-0.8,4.2-1.8,6.1-2.9c1-0.5,2-1.2,2.9-1.8c1-0.6,2-1.2,2.9-1.9
	c3.8-2.7,7.3-5.6,10.6-8.9c3.2-3.3,6.2-6.8,8.8-10.5c2.7-3.7,5.1-7.6,7.4-11.7c2.3-4.1,4.5-8.2,6.8-12.5c2.3-4.2,4.8-8.5,8-12.6
	c0.7-1,1.6-2,2.5-3c0.9-1,1.8-1.9,2.8-2.8c2-1.7,4.1-3.3,6.4-4.6c4.6-2.6,9.7-3.8,14.6-4.2c5-0.3,9.9,0,14.6,0.9
	c-4.8,0.5-9.5,1.1-14,2.4c-4.5,1.2-8.6,3.1-12.1,5.7c-0.4,0.3-0.9,0.6-1.3,1l-1.2,1.1l-0.6,0.5l-0.6,0.6l-1.1,1.2
	c-0.7,0.8-1.4,1.7-2.1,2.6c-0.6,0.9-1.3,1.8-1.9,2.7c-2.4,3.8-4.5,7.9-6.6,12.2c-4.1,8.5-8.8,17.4-15.1,25.2
	c-3.2,3.9-6.7,7.5-10.5,10.7c-3.8,3.2-7.9,6.1-12.1,8.7l-3.2,1.9c-1.1,0.6-2.1,1.2-3.3,1.8c-2.2,1.1-4.5,2.1-6.9,3
	c-4.8,1.7-9.9,2.5-15.1,2.1c-5.1-0.4-10.1-2.1-14.5-4.6c-4.4-2.6-8.1-5.9-11.4-9.6c-6.5-7.4-11.3-16-15.2-24.8
	c-3.8-8.9-6.9-18-9.1-27.4L157.8,607.9z"/>
<path class="st3" d="M157.8,607.9c1.2,4.3,2.8,8.6,4.5,12.8c1.8,4.2,3.8,8.2,6,12.1c2.3,3.9,4.8,7.6,7.8,11c3,3.4,6.3,6.4,10.1,8.7
	c3.8,2.3,8.1,3.7,12.5,4c4.4,0.3,8.8-0.6,13-2.2c2.1-0.8,4.1-1.8,6-2.9c1.9-1.1,3.8-2.3,5.6-3.6c3.6-2.4,6-6.2,8-10.2
	c2-4,3.5-8.3,5-12.5c1.6-4.3,3.2-8.6,5.1-12.8c1.9-4.2,4.2-8.3,7.1-12c2.9-3.7,6.3-7.1,10.1-9.8c3.9-2.7,8.1-4.8,12.5-6.3
	c4.4-1.5,9-2.4,13.6-2.9c9.2-1,18.4-0.4,27.4,0.9c-9.1-0.4-18.2-0.2-27.1,1.2c-4.4,0.7-8.8,1.8-12.9,3.4c-4.1,1.6-8.1,3.6-11.6,6.2
	c-3.5,2.6-6.7,5.7-9.3,9.2c-2.7,3.5-4.9,7.3-6.9,11.3c-2,4-3.6,8.2-5.3,12.4c-1.7,4.2-3.4,8.5-5.5,12.6c-1.1,2.1-2.3,4.1-3.7,6
	c-1.5,1.9-3.2,3.6-5.2,4.9c-1.9,1.3-3.9,2.5-5.9,3.7c-2,1.1-4.1,2.1-6.3,2.9c-4.4,1.6-9.1,2.5-13.8,2.1c-4.7-0.3-9.3-1.9-13.2-4.4
	c-4-2.4-7.4-5.6-10.4-9.1c-3-3.5-5.6-7.4-7.8-11.3c-2.3-4-4.2-8.1-5.9-12.4c-1.7-4.2-3.2-8.5-4.4-13L157.8,607.9z"/>
<path class="st3" d="M157.8,608c1.3,10.2,3.6,20.2,6.8,29.9c3.2,9.7,7.5,19.1,13.4,27.3c3,4.1,6.4,7.9,10.3,11
	c3.9,3.2,8.3,5.7,13,7.2c2.4,0.8,4.8,1.4,7.2,1.7c2.5,0.3,5,0.5,7.5,0.4c2.5-0.1,5-0.4,7.5-0.8c2.5-0.4,5-0.9,7.4-1.6
	c9.8-2.4,19.2-6.5,27.3-12.5c8.1-6,14.6-13.9,19.8-22.6c5.3-8.7,9.4-18.2,14.8-27.1c2.7-4.4,5.9-8.7,10.3-11.8
	c2.2-1.5,4.6-2.7,7.1-3.3c2.5-0.7,5.1-0.9,7.7-0.8c-2.6,0.1-5.1,0.6-7.5,1.4c-2.4,0.8-4.6,2.1-6.6,3.7c-3.9,3.2-6.8,7.5-9.2,11.9
	c-2.4,4.5-4.6,9.1-6.7,13.8c-2.2,4.7-4.5,9.3-7.1,13.9c-2.6,4.5-5.5,8.9-8.9,12.9c-3.4,4.1-7.2,7.7-11.5,10.9
	c-8.5,6.4-18.4,10.5-28.6,12.9c-2.5,0.6-5.1,1.1-7.7,1.5c-2.6,0.4-5.3,0.7-7.9,0.7c-2.7,0-5.3-0.1-8-0.5c-2.6-0.4-5.2-1.1-7.7-1.9
	c-5-1.8-9.7-4.5-13.7-7.9c-4.1-3.4-7.6-7.4-10.6-11.7c-6-8.6-10.1-18.3-13.2-28.2c-3-9.9-5.1-20.1-6.2-30.4L157.8,608z"/>
<path class="st4" d="M317.9,574.5l-6.9,1.3c-4.6,1.2-7.4,6-6.1,10.6l10.6,39.7c1.8,6.7,8.7,10.7,15.3,8.9h0c0.2,0,2.2,0.5,2.4,0.4
	C324.7,616.4,320.7,595.3,317.9,574.5z"/>
<path class="st5" d="M330.7,634.9L330.7,634.9c0.2,0,2.2,0.5,2.4,0.4c-2.1-4.8-4-9.8-5.6-14.8c-8.4,5.9-12.6,3-12.8,2.9l0.7,2.7
	C317.2,632.7,324.1,636.7,330.7,634.9z"/>
</svg>
