<?xml version="1.0" encoding="utf-8"?>
<!-- Generator: Adobe Illustrator 23.0.1, SVG Export Plug-In . SVG Version: 6.00 Build 0)  -->
<svg version="1.1" id="Layer_1" xmlns="http://www.w3.org/2000/svg" xmlns:xlink="http://www.w3.org/1999/xlink" x="0px" y="0px"
	 viewBox="0 0 1080 1080" style="enable-background:new 0 0 1080 1080;" xml:space="preserve">
<style type="text/css">
	.st0{fill:#5E17A6;}
	.st1{fill:#2A124C;}
	.st2{fill:#128741;}
	.st3{fill:#2ED67A;}
</style>
<path class="st0" d="M310.9,673.9c-2.9-19.9,19.2-25.1,25.3-33.7c0,0,0,0,0,0C321,608.4,313,573,314.2,536.3
	C263.4,551.5,215,606.5,223,664c15.5,111,169.5,122,175.8,97C406.8,729.6,317,716,310.9,673.9z"/>
<path class="st1" d="M398.8,761c0.4-1.6,0.5-3.1,0.5-4.6c-0.8,1.8-2.9,4.4-7.9,7.8c-12.4,8.5-101,4.7-140.8-74.2
	C210.5,610.7,270,563.6,270,563.6l-2.6-1.2C238,587.4,217.6,625.1,223,664C238.5,775,392.5,786,398.8,761z"/>
<path class="st1" d="M307.7,661.1c0.5,3.3,1.5,6.5,2.9,9.4c-0.1-17.2,19.8-22.3,25.5-30.4c0,0,0,0,0,0c-1.7-3.6-3.3-7.2-4.8-10.8
	C323.7,636.9,305,642.7,307.7,661.1z"/>
<path class="st2" d="M275,558.8c0,0-17-27.3-30.5-11.3s2.3,48.5,2.3,48.5s8.2-15.7,11.8-20.4C262.2,570.9,275,558.8,275,558.8z"/>
<path class="st3" d="M246.8,596c0,0-15.8-32.5-2.3-48.5c0.1-0.1,0.2-0.2,0.3-0.3c-2.6,0.7-5.1,2.5-7.2,5.8
	c-11.5,17.5,8.2,47.9,8.2,47.9L246.8,596z"/>
<path class="st2" d="M245.5,599.5c0,0-33.5-10-35,9s31.9,55.7,30.8,45.8C239,634.8,239,615,245.5,599.5z"/>
<path class="st3" d="M241.3,654.3c0,0-28.4-22.6-30.7-42.2c-1.1,1.7-1.7,3.9-1.7,6.5c0.2,15.4,21.8,32.4,30,38.2
	c1.2,0.8,2.7-0.2,2.5-1.6L241.3,654.3z"/>
<path class="st2" d="M242,658.9c0,0-33.3,11.1-19.9,31.1c13.4,20,42.6,21.9,38.2,16.5C250,693.8,243.3,672.8,242,658.9z"/>
<g>
	<path class="st3" d="M266.4,714.7c-2-2.2-3.9-4.8-5.6-7.4c0.9,4.3-26,1.6-38.6-17.3c-0.4-0.6-0.8-1.2-1.1-1.9
		c-0.2,3,0.8,6.4,3.4,10.1C239.1,718.2,271.2,720.1,266.4,714.7z"/>
</g>
<path class="st2" d="M265.4,713.8c0,0-9.4,26.8,7.1,44.7c10.2,11,44.5-3.9,41.1-5.9C288.3,738.1,283.9,733.8,265.4,713.8z"/>
<path class="st3" d="M320.6,755.1c-2-0.8-7.1-2.5-7.1-2.5c3,1.3-20.6,12.2-34.3,9.3c0.2,0.2,0.4,0.4,0.6,0.7
	C290.4,773.2,324.3,756.5,320.6,755.1z"/>
<path class="st3" d="M278.1,556.4c0,0-10.6-30-2.2-43c-16.7,8.1-2.8,47.5-2.8,47.5C275,558.8,275,558.8,278.1,556.4z"/>
<path class="st2" d="M320.5,755.5c0,0,16.5,35.5,34.5,33.5s29.1-24.2,29.1-24.2S351.3,766.7,320.5,755.5z"/>
<path class="st3" d="M384,764.8c-0.2,0.4-11.2,22.2-29,24.2c2.9,1.2,5.9,1.7,8.8,1.2c17.8-3.1,27.5-26,27.5-26
	S388.7,764.5,384,764.8z"/>
<path class="st2" d="M315,523.2c-5.2-7.8-14.4-16.9-28.8-15.7c-24.8,2-8.2,48.9-8.2,48.9c18.6-13.1,29.9-18.5,36.2-20.8
	C314.4,531.5,314.6,527.4,315,523.2z"/>
</svg>
